<?xml version="1.0" encoding="utf-8"?>
<!-- Generator: Adobe Illustrator 15.0.2, SVG Export Plug-In . SVG Version: 6.00 Build 0)  -->
<!DOCTYPE svg PUBLIC "-//W3C//DTD SVG 1.1//EN" "http://www.w3.org/Graphics/SVG/1.1/DTD/svg11.dtd">
<svg version="1.1" id="Layer_1" xmlns="http://www.w3.org/2000/svg" xmlns:xlink="http://www.w3.org/1999/xlink" x="0px" y="0px"
	 width="380.543px" height="81.941px" viewBox="0 0 380.543 81.941" enable-background="new 0 0 380.543 81.941"
	 xml:space="preserve">
<g>
	<g>
		<path fill="#35BAFF" d="M66.986,46.456c-0.447-1.154-0.577-1.858-0.577-2.693c0-2.946,2.308-4.487,4.808-4.487
			c2.563,0,3.651,1.86,4.101,3.271l5.897,18.201h0.128l5.897-18.201c0.447-1.41,1.537-3.271,4.097-3.271
			c2.501,0,4.809,1.541,4.809,4.487c0,0.835-0.126,1.539-0.577,2.693l-9.293,23.838c-0.896,2.373-1.856,3.846-4.997,3.846
			c-3.14,0-4.103-1.473-5-3.846L66.986,46.456z"/>
		<path fill="#35BAFF" d="M112.229,30.497c0,2.885-2.306,5.318-5.191,5.318c-2.755,0-5.188-2.502-5.188-5.318
			c0-2.628,2.434-5.062,5.188-5.062C109.796,25.433,112.229,27.802,112.229,30.497z M102.426,44.403c0-3.078,1.919-5.13,4.612-5.13
			c2.691,0,4.616,2.052,4.616,5.13v24.608c0,3.074-1.924,5.125-4.616,5.125c-2.693,0-4.612-2.051-4.612-5.125V44.403z"/>
		<path fill="#35BAFF" d="M140.041,49.656c-1.731,0-5.254-2.688-8.267-2.688c-1.667,0-3.141,0.77-3.141,2.561
			c0,4.296,16.023,3.655,16.023,14.168c0,6.148-5.193,10.829-13.139,10.829c-5.19,0-12.882-2.949-12.882-7.115
			c0-1.406,1.409-4.101,3.973-4.101c3.589,0,5.193,3.141,9.549,3.141c2.823,0,3.655-0.896,3.655-2.628
			c0-4.229-16.023-3.589-16.023-14.164c0-6.406,5.192-10.765,12.498-10.765c4.55,0,11.535,2.113,11.535,6.664
			C143.822,47.671,142.221,49.656,140.041,49.656z"/>
		<path fill="#35BAFF" d="M151.766,44.403c0-3.078,1.924-5.13,4.612-5.13c2.695,0,4.616,2.052,4.616,5.13v16.471
			c0,3.849,2.885,5.959,5.963,5.959c3.077,0,5.959-2.11,5.959-5.959V44.403c0-3.078,1.92-5.13,4.612-5.13
			c2.695,0,4.616,2.052,4.616,5.13v16.66c0,8.205-5.446,13.46-15.187,13.46c-9.742,0-15.19-5.255-15.19-13.46L151.766,44.403
			L151.766,44.403z"/>
		<path fill="#35BAFF" d="M222.773,68.113c0,2.371,0,6.023-4.422,6.023c-2.691,0-3.783-1.471-4.427-3.906
			c-2.37,2.818-5.254,4.293-8.774,4.293c-8.655,0-15.254-7.371-15.254-17.752c0-10.126,6.793-17.88,15.254-17.88
			c3.395,0,6.729,1.346,8.774,4.229c0.259-2.246,2.183-3.85,4.427-3.85c4.422,0,4.422,3.655,4.422,6.026V68.113z M206.43,66.06
			c4.805,0,7.113-4.867,7.113-9.289c0-4.426-2.242-9.421-7.113-9.421c-5.062,0-7.308,4.995-7.308,9.421
			C199.123,61.193,201.432,66.06,206.43,66.06z"/>
		<path fill="#35BAFF" d="M231.742,29.534c0-3.072,1.922-5.127,4.613-5.127c2.692,0,4.612,2.055,4.612,5.127v39.478
			c0,3.074-1.92,5.127-4.612,5.127c-2.691,0-4.613-2.053-4.613-5.127V29.534z"/>
	</g>
	<path fill="#444445" d="M249.938,29.534c0-3.072,1.927-5.127,4.615-5.127c2.691,0,4.615,2.055,4.615,5.127v12.562
		c2.438-2.116,5.576-3.204,8.779-3.204c9.936,0,14.869,9.291,14.869,18.263c0,8.719-5.896,17.369-15.189,17.369
		c-3.139,0-6.73-1.411-8.459-4.229c-0.576,2.436-2.053,3.845-4.615,3.845c-2.689,0-4.615-2.052-4.615-5.126V29.534L249.938,29.534z
		 M266.41,66.06c4.807,0,7.176-4.997,7.176-9.289c0-4.36-2.369-9.421-7.176-9.421c-4.934,0-7.24,4.614-7.24,9.1
		C259.17,60.936,261.346,66.06,266.41,66.06z"/>
	<path fill="#444445" d="M322.1,68.113c0,2.371,0,6.023-4.424,6.023c-2.692,0-3.778-1.471-4.422-3.906
		c-2.369,2.818-5.256,4.293-8.777,4.293c-8.649,0-15.252-7.371-15.252-17.752c0-10.126,6.789-17.88,15.252-17.88
		c3.396,0,6.73,1.346,8.777,4.229c0.256-2.246,2.182-3.85,4.422-3.85c4.424,0,4.424,3.655,4.424,6.026V68.113z M305.758,66.06
		c4.808,0,7.113-4.867,7.113-9.289c0-4.426-2.242-9.421-7.113-9.421c-5.062,0-7.309,4.995-7.309,9.421
		C298.451,61.193,300.76,66.06,305.758,66.06z"/>
	<path fill="#444445" d="M331.195,44.403c0-3.078,1.926-5.13,4.617-5.13c2.368,0,3.905,1.285,4.227,3.461
		c2.242-2.432,5.193-3.843,8.59-3.843c3.846,0,7.113,1.601,9.549,4.678c2.562-2.947,6.599-4.678,9.74-4.678
		c7.494,0,12.625,4.356,12.625,12.432v17.688c0,3.074-1.926,5.125-4.615,5.125c-2.69,0-4.61-2.051-4.61-5.125V52.926
		c0-3.717-2.054-6.344-5.384-6.344c-3.399,0-5.448,2.627-5.448,6.344v16.086c0,3.074-1.92,5.125-4.613,5.125
		c-2.691,0-4.611-2.051-4.611-5.125V52.926c0-3.717-2.053-6.344-5.387-6.344c-3.781,0-5.447,2.627-5.447,6.344v16.086
		c0,3.074-1.922,5.125-4.61,5.125c-2.691,0-4.617-2.051-4.617-5.125V44.403H331.195z"/>
</g>
<path fill="#444445" d="M27.707,81.941C12.431,81.941,0,69.513,0,54.233c0-15.277,12.431-27.708,27.707-27.708
	c15.28,0,27.71,12.431,27.71,27.708C55.417,69.513,42.986,81.941,27.707,81.941z M27.707,33.299
	c-11.544,0-20.934,9.393-20.934,20.935c0,11.544,9.391,20.938,20.934,20.938c11.544,0,20.936-9.394,20.936-20.938
	C48.643,42.691,39.251,33.299,27.707,33.299z"/>
<g>
	<rect x="59.112" y="0.001" fill="#444445" width="3.285" height="12.314"/>
	<rect x="54.595" y="4.514" fill="#444445" width="12.317" height="3.286"/>
</g>
<g>
	<circle fill="#444445" cx="20.13" cy="61.357" r="5.135"/>
	<circle fill="#444445" cx="35.001" cy="61.357" r="5.134"/>
</g>
<path fill="none" stroke="#444445" stroke-width="5.6898" stroke-miterlimit="10" d="M27.707,27.417
	c0-5.511,5.731-10.013,12.428-6.162c6.259,3.273,11.287-2.156,13.797-6.569"/>
</svg>
