<?xml version="1.0" encoding="utf-8"?>
<!-- Generator: Adobe Illustrator 16.0.3, SVG Export Plug-In . SVG Version: 6.00 Build 0)  -->
<!DOCTYPE svg PUBLIC "-//W3C//DTD SVG 1.1//EN" "http://www.w3.org/Graphics/SVG/1.1/DTD/svg11.dtd">
<svg version="1.1" id="Layer_1" xmlns="http://www.w3.org/2000/svg" xmlns:xlink="http://www.w3.org/1999/xlink" x="0px" y="0px"
	 width="133px" height="97.5px" viewBox="0 0 133 97.5" enable-background="new 0 0 133 97.5" xml:space="preserve">
<g>
	<g id="VuzQff_8_">
		<g>
			<g>
				<path fill-rule="evenodd" clip-rule="evenodd" fill="#FBCC63" d="M107.002,25.5c-0.23,7.887-2.646,14.438-7.885,19.83
					c-2.055,2.113-5.102,2.246-7.07,0.381c-2.047-1.939-2.035-4.929,0.023-7.188c6.467-7.076,6.947-16.765,1.18-23.938
					c-0.439-0.55-0.92-1.083-1.447-1.542c-0.961-0.837-2.004-0.815-2.918,0.045c-0.902,0.85-1.025,1.878-0.289,2.92
					c0.326,0.458,0.73,0.853,1.084,1.294c4.07,5.074,3.957,12.503-0.246,17.453c-1.025,1.207-2.246,2.07-3.898,1.814
					c-3.209-0.497-4.512-4.046-2.449-6.576c2.312-2.844,2.359-4.762,0.352-7.922c-0.273-0.428-0.062-1.162-0.076-1.758
					c0.578,0.135,1.338,0.081,1.699,0.434c2.385,2.383,2.543,6.901,0.438,9.766c-0.223,0.305-0.484,0.58-0.719,0.873
					c-0.693,0.865-0.73,1.787,0.076,2.527c0.811,0.75,1.748,0.642,2.514-0.152c2.234-2.311,3.295-5.09,3.191-8.302
					c-0.098-3.011-1.322-5.513-3.357-7.7c-1.771-1.901-1.646-4.642,0.17-6.332c1.812-1.685,4.496-1.547,6.324,0.324
					c7.285,7.468,7.539,19.711,0.572,27.607c-0.279,0.318-0.586,0.616-0.854,0.941c-0.973,1.199-0.881,2.84,0.203,3.822
					c1.049,0.949,2.605,0.939,3.691-0.141c4.109-4.092,6.549-9.049,7.26-14.789c1.006-8.094-1.406-15.125-6.914-21.11
					c-0.549-0.595-1.059-1.252-0.271-1.924c0.73-0.62,1.391-0.152,1.951,0.448c4.195,4.521,6.711,9.815,7.383,15.965
					C106.844,23.693,106.936,24.816,107.002,25.5z"/>
				<path fill-rule="evenodd" clip-rule="evenodd" fill="#FBCC63" d="M77.07,29.22c-2.109-0.161-3.186-1.389-3.301-3.377
					c-0.113-1.916,1.578-3.404,3.572-3.287c2.156,0.125,3.096,1.365,3.055,3.443C80.346,28.166,79.098,29.1,77.07,29.22z"/>
			</g>
		</g>
	</g>
	<g>
		<g>
			<g>
				<g>
					<path fill="#615562" d="M38.959,11.4h-7.416c-3.268,0-4.629-2.382-4.629-4.692c0-2.383,1.703-4.7,4.629-4.7H65.91
						c2.926,0,4.631,2.316,4.631,4.7c0,2.31-1.363,4.692-4.631,4.692H49.168v34.167c0,3.399-2.178,5.308-5.105,5.308
						s-5.104-1.908-5.104-5.308V11.4z"/>
				</g>
			</g>
			<g>
				<path fill="#615562" d="M79.012,40.441c-1.299,0.412-2.758,0.633-4.377,0.633h-6.871V11.4h6.189c1.98,0,3.709,0.297,5.225,0.822
					c2.178-2.89,5.012-5.256,8.268-6.896c-3.613-2.147-8.094-3.317-13.354-3.317H62.793c-3.062,0-5.24,2.113-5.24,5.24V45.36
					c0,3.88,3.133,5.106,5.379,5.106H74.77c4.756,0,8.957-1.066,12.438-3.029C83.969,45.757,81.162,43.357,79.012,40.441z"/>
			</g>
		</g>
	</g>
	<g>
		<g>
			<g>
				<g>
					<text transform="matrix(1 0 0 1 2.4116 85.0586)" fill="#615562" font-family="'HelveticaRounded-Bold'" font-size="38.8029">tapdat</text>
				</g>
			</g>
			<g>
				<text transform="matrix(1 0 0 1 54.4028 95.208)" fill="#615562" font-family="'GothamBold'" font-size="6.9193">GET YOUR TAP ON</text>
			</g>
		</g>
	</g>
</g>
</svg>
