<?xml version="1.0" encoding="utf-8"?>
<!-- Generator: Adobe Illustrator 16.0.3, SVG Export Plug-In . SVG Version: 6.00 Build 0)  -->
<!DOCTYPE svg PUBLIC "-//W3C//DTD SVG 1.1//EN" "http://www.w3.org/Graphics/SVG/1.1/DTD/svg11.dtd">
<svg version="1.1" id="Layer_1" xmlns="http://www.w3.org/2000/svg" xmlns:xlink="http://www.w3.org/1999/xlink" x="0px" y="0px"
	 width="248.627px" height="52.305px" viewBox="0 0 248.627 52.305" enable-background="new 0 0 248.627 52.305"
	 xml:space="preserve">
<g id="VuzQff_4_">
	<g>
		<path fill-rule="evenodd" clip-rule="evenodd" fill="#F7C862" d="M90.768,25.144c-0.246,8.443-2.832,15.455-8.439,21.225
			c-2.201,2.264-5.46,2.406-7.569,0.41c-2.19-2.076-2.177-5.276,0.026-7.693c6.923-7.574,7.438-17.946,1.264-25.621
			c-0.471-0.591-0.986-1.16-1.551-1.652c-1.027-0.896-2.144-0.872-3.123,0.049c-0.965,0.91-1.098,2.01-0.311,3.126
			c0.35,0.49,0.784,0.914,1.162,1.384c4.356,5.431,4.236,13.386-0.264,18.681c-1.097,1.293-2.404,2.217-4.172,1.941
			c-3.435-0.531-4.831-4.33-2.622-7.037c2.477-3.044,2.527-5.098,0.377-8.479c-0.292-0.459-0.067-1.244-0.082-1.882
			c0.618,0.144,1.434,0.087,1.818,0.464c2.553,2.55,2.722,7.389,0.469,10.452c-0.239,0.328-0.519,0.621-0.77,0.936
			c-0.743,0.926-0.78,1.914,0.08,2.705c0.869,0.804,1.873,0.687,2.692-0.162c2.392-2.474,3.528-5.45,3.417-8.888
			c-0.105-3.224-1.416-5.901-3.596-8.24c-1.895-2.037-1.762-4.97,0.184-6.777c1.94-1.805,4.812-1.657,6.769,0.346
			c7.798,7.993,8.069,21.099,0.611,29.551c-0.298,0.338-0.626,0.657-0.913,1.006c-1.041,1.283-0.942,3.038,0.217,4.091
			c1.122,1.016,2.79,1.005,3.951-0.149c4.4-4.381,7.008-9.688,7.77-15.83c1.078-8.663-1.504-16.19-7.4-22.595
			c-0.587-0.638-1.133-1.341-0.291-2.06c0.781-0.665,1.489-0.163,2.089,0.478c4.492,4.841,7.185,10.506,7.903,17.089
			C90.601,23.211,90.698,24.412,90.768,25.144z"/>
		<path fill-rule="evenodd" clip-rule="evenodd" fill="#F7C862" d="M58.73,29.128c-2.258-0.174-3.409-1.487-3.532-3.616
			c-0.122-2.049,1.688-3.642,3.823-3.517c2.308,0.133,3.314,1.461,3.269,3.687C62.237,27.997,60.901,28.999,58.73,29.128z"/>
	</g>
</g>
<g>
	<g>
		<g>
			<g>
				<path fill="#615562" d="M17.938,10.053H9.998c-3.497,0-4.952-2.548-4.952-5.021C5.046,2.481,6.867,0,9.998,0h36.787
					c3.131,0,4.955,2.481,4.955,5.032c0,2.473-1.459,5.021-4.955,5.021H28.864v36.569c0,3.643-2.331,5.683-5.465,5.683
					c-3.132,0-5.462-2.04-5.462-5.683V10.053z"/>
			</g>
		</g>
		<g>
			<path fill="#615562" d="M60.808,41.138c-1.389,0.439-2.95,0.677-4.684,0.677h-7.354V10.053h6.624c2.12,0,3.969,0.319,5.592,0.878
				c2.332-3.091,5.365-5.625,8.85-7.38C65.97,1.253,61.171,0,55.541,0H43.449c-3.279,0-5.609,2.263-5.609,5.609v40.793
				c0,4.153,3.354,5.466,5.758,5.466h12.671c5.089,0,9.586-1.143,13.312-3.244C66.114,46.827,63.111,44.26,60.808,41.138z"/>
		</g>
	</g>
</g>
<g>
	<g>
		<g>
			<g>
				<text transform="matrix(1 0 0 1 103.1963 38.0771)" fill="#615562" font-family="'HelveticaRounded-Bold'" font-size="41.5331">tapdat</text>
			</g>
		</g>
		<g>
			<text transform="matrix(1 0 0 1 158.8457 48.9385)" fill="#615562" font-family="'GothamBold'" font-size="7.4061">GET YOUR TAP ON</text>
		</g>
	</g>
</g>
<g>
	<g id="VuzQff_2_">
		<g>
			<path fill-rule="evenodd" clip-rule="evenodd" fill="#D1D3D4" d="M97.788-30.251c-0.131,4.488-1.505,8.213-4.485,11.281
				c-1.169,1.201-2.902,1.277-4.022,0.217c-1.164-1.104-1.157-2.803,0.014-4.09c3.679-4.025,3.952-9.535,0.671-13.617
				c-0.25-0.312-0.524-0.615-0.824-0.877c-0.546-0.477-1.14-0.463-1.659,0.027c-0.514,0.482-0.584,1.068-0.166,1.66
				c0.186,0.262,0.417,0.484,0.617,0.736c2.315,2.887,2.252,7.113-0.14,9.928c-0.583,0.688-1.277,1.178-2.217,1.031
				c-1.826-0.281-2.568-2.301-1.394-3.74c1.316-1.617,1.343-2.709,0.201-4.506c-0.156-0.244-0.036-0.662-0.043-1
				c0.329,0.076,0.762,0.047,0.967,0.246c1.356,1.355,1.446,3.926,0.249,5.557c-0.127,0.174-0.276,0.328-0.41,0.496
				c-0.395,0.492-0.415,1.016,0.042,1.438c0.462,0.428,0.996,0.365,1.431-0.086c1.271-1.314,1.875-2.896,1.816-4.725
				c-0.056-1.711-0.752-3.135-1.911-4.379c-1.007-1.082-0.937-2.641,0.097-3.602c1.032-0.959,2.558-0.881,3.598,0.184
				c4.144,4.248,4.289,11.213,0.325,15.705c-0.159,0.182-0.333,0.352-0.485,0.535c-0.553,0.684-0.501,1.615,0.115,2.174
				c0.596,0.541,1.482,0.535,2.1-0.08c2.338-2.328,3.725-5.146,4.13-8.412c0.573-4.604-0.8-8.604-3.934-12.008
				c-0.312-0.34-0.602-0.713-0.154-1.096c0.415-0.352,0.792-0.086,1.11,0.254c2.387,2.572,3.818,5.584,4.201,9.082
				C97.699-31.278,97.751-30.64,97.788-30.251z"/>
			<path fill-rule="evenodd" clip-rule="evenodd" fill="#D1D3D4" d="M80.76-28.134c-1.199-0.092-1.811-0.791-1.876-1.922
				c-0.064-1.09,0.898-1.936,2.031-1.869c1.227,0.07,1.762,0.777,1.738,1.959C82.625-28.733,81.915-28.202,80.76-28.134z"/>
		</g>
	</g>
	<g>
		<path fill="#D1D3D4" d="M59.081-38.271h-4.219c-1.858,0-2.632-1.355-2.632-2.67c0-1.355,0.968-2.674,2.632-2.674h19.551
			c1.664,0,2.634,1.318,2.634,2.674c0,1.314-0.775,2.67-2.634,2.67h-9.524v19.436c0,1.934-1.238,3.02-2.904,3.02
			c-1.665,0-2.903-1.086-2.903-3.02V-38.271z"/>
		<path fill="#D1D3D4" d="M81.865-21.751c-0.738,0.234-1.568,0.359-2.49,0.359h-3.908v-16.879h3.521c1.126,0,2.11,0.168,2.972,0.467
			c1.24-1.645,2.852-2.99,4.703-3.924c-2.054-1.221-4.604-1.887-7.597-1.887H72.64c-1.743,0-2.982,1.201-2.982,2.982v21.68
			c0,2.205,1.783,2.904,3.061,2.904h6.734c2.706,0,5.096-0.607,7.076-1.725C84.685-18.726,83.089-20.091,81.865-21.751z"/>
	</g>
	<g>
		<g>
			<g>
				
					<text transform="matrix(1 0 0 1 104.3921 -23.3794)" fill="#D1D3D4" font-family="'HelveticaRounded-Bold'" font-size="22.0737">tapdat</text>
			</g>
		</g>
		<g>
			<text transform="matrix(1 0 0 1 133.9688 -17.606)" fill="#D1D3D4" font-family="'GothamBold'" font-size="3.9362">GET YOUR TAP ON</text>
		</g>
	</g>
</g>
</svg>
