<?xml version="1.0" encoding="utf-8"?>
<!-- Generator: Adobe Illustrator 16.0.3, SVG Export Plug-In . SVG Version: 6.00 Build 0)  -->
<!DOCTYPE svg PUBLIC "-//W3C//DTD SVG 1.1//EN" "http://www.w3.org/Graphics/SVG/1.1/DTD/svg11.dtd">
<svg version="1.1" id="Layer_1" xmlns="http://www.w3.org/2000/svg" xmlns:xlink="http://www.w3.org/1999/xlink" x="0px" y="0px"
	 viewBox="0 0 280.745 102.485" enable-background="new 0 0 280.745 102.485"
	 xml:space="preserve">
<g>
	<text transform="matrix(0.7134 0 0 1 -9.765625e-04 98.0923)"><tspan x="0" y="0" fill="#3E96DB" font-family="'Univers-CondensedBold'" font-size="78.5943" letter-spacing="1.402">V</tspan><tspan x="45.428" y="0" fill="#3E96DB" font-family="'Univers-CondensedBold'" font-size="78.5943" letter-spacing="1.402">isual</tspan></text>
	<g>
		<path fill="#4F5D7E" d="M251.839,49.238c-0.563,0.313-1.176-0.029-1.875-0.637c-1.267-1.07-2.399-0.718-3.018-0.448
			c-1.479,0.642-1.808,0.607-2.863,0.048c-1.027-0.544-2.473-0.944-2.757-0.713l6.04,14.779L251.839,49.238z"/>
		<path fill="#4F5D7E" d="M244.42,43.304c1.351,0,2.459-1.094,2.459-2.454c0-1.364-1.108-2.458-2.459-2.458
			c-1.354,0-2.458,1.094-2.458,2.458C241.962,42.209,243.065,43.304,244.42,43.304z"/>
		<path fill="#4F5D7E" d="M250.128,41.631c-0.747,0.704-0.79,1.87-0.101,2.623c0.698,0.747,1.869,0.785,2.617,0.087
			c0.752-0.695,0.791-1.861,0.091-2.623C252.037,40.98,250.876,40.946,250.128,41.631z"/>
		<path fill="#4F5D7E" d="M249.241,36.237c1.635,0,2.949-1.326,2.949-2.964c0-1.62-1.314-2.946-2.949-2.946
			c-1.634,0-2.955,1.326-2.955,2.946C246.286,34.911,247.607,36.237,249.241,36.237z"/>
		<path fill="#4F5D7E" d="M168.254,96.434c-0.776-1.249-1.234-2.599-1.384-4.035c-0.049-0.347-0.068-1.808-0.034-4.357V76.713
			c0-2.169,0.241-3.687,0.737-4.56c0.704-1.219,2.04-1.827,4.045-1.827c3.133,0,5.563,1.485,7.279,4.444
			c1.44,2.469,2.164,5.39,2.164,8.773c0,4.589-1.254,6.874-3.774,6.874c-0.371,0-0.748-0.159-1.138-0.481
			c-0.39-0.329-0.573-0.689-0.573-1.08c0-0.902,0.279-1.587,0.857-2.025c0.246-0.212,0.916-0.578,2.02-1.084
			c0-1.702-0.992-2.541-2.959-2.541c-1.735,0-3.191,0.694-4.324,2.093c-1.1,1.292-1.653,2.834-1.653,4.603
			c0,2.681,1.012,4.913,3.036,6.682c1.909,1.722,4.228,2.575,6.941,2.575c4.58,0,8.287-2.093,11.121-6.277
			c1.928-2.834,3.168-6.257,3.558-9.751c0.015-0.135,0.043-0.42,0.058-0.564c0.174-1.591,0.96-2.945,2.305-4.083
			c1.489-1.234,3.2-1.86,5.109-1.86c3.986,0,7.163,0.993,8.927,3.432c1.441,2.006,2.55,4.232,3.847,6.349
			c1.549,2.285,3.785,3.442,6.72,3.442c2.767,0,5.188-0.858,7.284-2.575c1.63-1.344,2.651-2.911,3.09-4.724
			c0.039-0.101,0.058-0.202,0.077-0.284l3.635-16.12l12.808,31.959l13.03-32.042c0.588,4.04,1.205,8.05,1.826,12.066
			c0.719,4.95,1.08,8.946,1.08,12.021c0,2.117-0.435,3.635-1.307,4.552c-0.424,0.299-0.834,0.603-1.229,0.901
			c-0.578,0.438-0.858,0.833-0.858,1.118c0,0.375,0.521,0.563,1.566,0.563c0.545,0,1.374-0.062,2.482-0.164
			c1.104-0.12,1.942-0.173,2.516-0.173c0.897,0,2.276,0.058,4.107,0.183c1.852,0.121,3.254,0.174,4.224,0.154h0.67l0.337-0.154
			l0.043-0.438c0-0.202-0.279-0.525-0.829-0.979c-0.665-0.555-1.035-0.863-1.075-0.926c-0.794-0.988-1.498-3.124-2.096-6.431
			c-1.047-5.596-2.526-15.724-4.439-30.359c-0.174-1.417-0.271-2.627-0.271-3.625c0-2.058,0.525-3.104,1.577-3.104
			c1.243,0,2.481,0.805,1.859,1.909c-1.041,1.875-2.101,2.117-2.279,2.844c-0.223,0.964,0.473,1.789,1.383,2.386
			c0.781,0.516,1.711,0.781,2.806,0.781c1.89,0,3.452-0.955,4.666-2.873c1.052-1.663,1.567-3.504,1.567-5.534
			c0-2.782-1.206-5.129-3.615-7.048c-2.262-1.793-4.845-2.685-7.737-2.685c-4.078,0-7.255,1.171-9.521,3.509
			c-1.663,1.707-3.288,4.753-4.854,9.106l-6.012,16.394c-1.571-3.875-3.138-7.771-4.705-11.651c0,0-4.511-10.725-5.866-14.355
			c-10.58-26.008-51.521-6.546-54.799-4.907c-9.206,4.643-19.368,4.054-25.645,4.623c-1.721,0.145-2.506-0.289-3.359-0.289
			c-0.4,0-1.075,0.097-1.075,0.338c1.86,1.344,3.037,2.386,3.509,3.138c0.618,0.993,0.926,2.526,0.926,4.589
			c0,0.375-0.342,12.33-1.041,35.893c-0.101,2.675-0.337,4.449-0.709,5.307c-0.496,1.079-1.744,2.348-3.73,3.76l0.217,0.333
			l1.162,0.038c1.021,0.023,2.473-0.048,4.367-0.211c1.985-0.198,3.433-0.294,4.328-0.294c0.699,0,1.746,0.066,3.144,0.221
			c1.389,0.169,2.429,0.246,3.128,0.246 M175.045,60.682c-1.161,1.538-2.709,2.289-4.603,2.289c-1.374,0-2.068-0.858-2.068-2.549
			c0-0.266,0.024-0.685,0.062-1.283c0.033-0.607,0.054-1.07,0.054-1.379c0-2.217,0.033-3.582,0.086-4.097
			c0.256-1.817,0.896-2.805,1.924-2.979c0.376-0.077,0.776-0.111,1.224-0.111c1.514,0,2.71,0.468,3.597,1.394
			c0.887,0.911,1.326,2.13,1.326,3.653C176.646,57.567,176.106,59.264,175.045,60.682z M194.978,55.856l-4.487,12.389
			c-2.006-1.87-4.782-2.753-8.344-2.69l-2.502,0.029c3.306-1.836,5.152-3.981,6.242-6.922c1.571-4.194,0.96-4.194,3.312-9.159
			c2.568-5.433,6.406-8.026,7.385-6.609C197.527,44.292,196.048,52.945,194.978,55.856z M207.661,68.741
			c-0.502,0.728-1.62,1.089-3.36,1.089c-1.447,0-2.367-0.048-2.767-0.155c-1.047-0.241-1.572-0.858-1.572-1.832
			c0-1.441,0.545-3.461,1.615-6.074c0.867-1.976,1.735-3.953,2.607-5.939c2.313,8.156,3.477,12.331,3.477,12.466V68.741z
			 M222.188,75.72c0,0-7.582-22.872-6.487-29.062c1.267-7.086,8.479-7.308,9.921-0.925C227.024,51.932,222.188,75.72,222.188,75.72z
			"/>
	</g>
	<g>
		<g>
			<path fill="#4F5D7E" d="M231.512,27.564c0,13.555-10.986,24.561-24.556,24.561c-13.555,0-24.554-11.005-24.554-24.561
				C182.402,14.005,193.401,3,206.956,3C220.525,3,231.512,14.005,231.512,27.564z"/>
			<path fill="#FFFFFF" d="M227.02,27.564c0,11.073-8.986,20.058-20.063,20.058s-20.062-8.985-20.062-20.058
				c0-11.077,8.984-20.052,20.062-20.052S227.02,16.487,227.02,27.564z"/>
			<path fill="#4F5D7E" d="M222.339,27.564c0,8.494-6.894,15.385-15.383,15.385c-8.494,0-15.376-6.891-15.376-15.385
				c0-8.493,6.882-15.372,15.376-15.372C215.445,12.192,222.339,19.071,222.339,27.564z"/>
			<path fill="#3E96DB" d="M215.166,18.816c1.2,1.882,1.909,4.112,1.909,6.505c0,6.616-5.366,12.008-11.999,12.008
				c-3.171,0-6.064-1.255-8.204-3.269c2.135,3.31,5.848,5.503,10.084,5.503c6.629,0,11.998-5.38,11.998-11.999
				C218.954,24.108,217.508,21.004,215.166,18.816z"/>
		</g>
		<g>
			<path fill="#FFFFFF" d="M206.956,15.564c-4.015,0-7.558,1.974-9.736,5.001l3.682,2.369c1.379-1.81,3.582-2.992,6.055-2.992
				V15.564z"/>
		</g>
		<path fill="#FFFFFF" d="M196.13,22.388c-0.693,1.466-1.113,3.071-1.161,4.772l4.372,0.049c0.038-0.844,0.206-1.661,0.516-2.411
			L196.13,22.388z"/>
	</g>
</g>
</svg>
