<?xml version="1.0" encoding="utf-8"?>
<!-- Generator: Adobe Illustrator 16.0.3, SVG Export Plug-In . SVG Version: 6.00 Build 0)  -->
<!DOCTYPE svg PUBLIC "-//W3C//DTD SVG 1.1//EN" "http://www.w3.org/Graphics/SVG/1.1/DTD/svg11.dtd">
<svg version="1.1" id="Layer_1" xmlns="http://www.w3.org/2000/svg" xmlns:xlink="http://www.w3.org/1999/xlink" x="0px" y="0px"
	 width="6727.5px" height="1872.5px" viewBox="0 0 6727.5 1872.5" enable-background="new 0 0 6727.5 1872.5" xml:space="preserve">
<path fill="#1D547A" d="M565.487,1774.837c-289.34,0-524.744-235.384-524.744-524.76c0-289.336,235.404-524.759,524.744-524.759
	c289.361,0,524.76,235.423,524.76,524.759C1090.247,1539.453,854.857,1774.837,565.487,1774.837z M565.487,853.873
	c-218.478,0-396.227,177.73-396.227,396.205s177.744,396.241,396.227,396.241c218.491,0,396.228-177.768,396.228-396.241
	C961.715,1031.604,783.979,853.873,565.487,853.873z"/>
<path fill="#1D547A" d="M567.479,813.766h-98.586c0-132.646,61.717-236.098,165.045-276.671
	c80.462-31.604,169.729-15.672,223.932,39.404c53.979,39.88,100.509,58.301,134.685,53.386
	c32.581-4.716,52.369-31.219,66.833-50.549c2.757-3.74,5.29-7.052,7.529-9.89l76.97,61.614c-1.651,2.044-3.459,4.481-5.498,7.222
	c-19.026,25.517-58.687,78.625-131.791,89.159c-62.257,8.97-133.211-16.068-211.018-74.445l-3.541-2.659l-2.981-3.221
	c-26.058-28.041-75.011-35.571-119.056-18.284C639.17,640.928,567.479,683.199,567.479,813.766z"/>
<g>
	<rect x="1177.67" y="383.788" fill="#1D547A" width="61.006" height="228.759"/>
	<rect x="1093.786" y="467.68" fill="#1D547A" width="228.757" height="60.992"/>
</g>
<g>
	<path fill="#1D547A" d="M498.899,1374.005c0,52.622-42.624,95.269-95.224,95.269c-52.604,0-95.224-42.646-95.224-95.269
		c0-52.578,42.619-95.185,95.224-95.185C456.275,1278.82,498.899,1321.427,498.899,1374.005z"/>
	<path fill="#1D547A" d="M800.557,1374.005c0,52.622-42.621,95.269-95.224,95.269c-52.604,0-95.224-42.646-95.224-95.269
		c0-52.578,42.619-95.185,95.224-95.185C757.936,1278.82,800.557,1321.427,800.557,1374.005z"/>
</g>
<g>
	<path fill="#A7D6EE" d="M1318.621,1106.613c-7.278-18.773-9.385-30.221-9.385-43.814c0-47.939,37.546-72.979,78.192-72.979
		c41.708,0,59.427,30.268,66.706,53.2l95.938,296.087h2.089l95.938-296.087c7.279-22.934,24.998-53.2,66.683-53.2
		c40.678,0,78.225,25.04,78.225,72.979c0,13.606-2.066,25.041-9.388,43.814l-151.185,387.896
		c-14.604,38.538-30.221,62.496-81.313,62.496c-51.096,0-66.729-23.944-81.363-62.496L1318.621,1106.613z"/>
	<path fill="#A7D6EE" d="M2024.677,847.02c0,46.879-37.545,86.533-84.461,86.533c-44.819,0-84.442-40.694-84.442-86.533
		c0-42.761,39.636-82.365,84.442-82.365C1985.043,764.653,2024.677,803.193,2024.677,847.02z M1865.16,1073.229
		c0-50.035,31.24-83.409,75.056-83.409c43.772,0,75.095,33.374,75.095,83.409v400.393c0,50.041-31.321,83.371-75.095,83.371
		c-43.814,0-75.056-33.33-75.056-83.371V1073.229z"/>
	<path fill="#A7D6EE" d="M2447.117,1158.718c-28.144,0-85.479-43.724-134.467-43.724c-27.123,0-51.093,12.494-51.093,41.659
		c0,69.866,260.683,59.427,260.683,230.427c0,100.088-84.479,176.182-213.75,176.182c-84.443,0-209.603-47.938-209.603-115.748
		c0-22.886,22.935-66.701,64.678-66.701c58.373,0,84.457,51.095,155.347,51.095c45.875,0,59.434-14.604,59.434-42.767
		c0-68.809-260.684-58.366-260.684-230.423c0-104.253,84.504-175.126,203.336-175.126c74.025,0,187.672,34.381,187.672,108.421
		C2508.652,1126.399,2482.6,1158.718,2447.117,1158.718z"/>
	<path fill="#A7D6EE" d="M2607.898,1073.229c0-50.035,31.289-83.409,75.03-83.409c43.816,0,75.095,33.374,75.095,83.409v267.986
		c0,62.588,46.934,96.924,96.975,96.924c50.064,0,96.975-34.336,96.975-96.924v-267.986c0-50.035,31.277-83.415,75.032-83.415
		c43.813,0,75.081,33.38,75.081,83.415v271.093c0,133.461-88.604,218.94-247.1,218.94s-247.103-85.479-247.103-218.94v-271.093
		H2607.898z"/>
	<path fill="#A7D6EE" d="M3733.084,1459.02c0,38.56,0,97.985-71.949,97.985c-43.772,0-61.516-23.944-71.957-63.545
		c-38.576,45.868-85.475,69.826-142.793,69.826c-140.788,0-248.178-119.908-248.178-288.81
		c0-164.685,110.521-290.873,248.178-290.873c55.205,0,109.444,21.894,142.793,68.813c4.16-36.492,35.463-62.595,71.957-62.595
		c71.949,0,71.949,59.429,71.949,98.026V1459.02z M3467.223,1425.634c78.176,0,115.723-79.206,115.723-151.181
		s-36.491-153.244-115.723-153.244c-82.371,0-118.889,81.27-118.889,153.244C3348.334,1346.427,3385.904,1425.634,3467.223,1425.634
		z"/>
	<path fill="#A7D6EE" d="M3849.009,831.354c0-50.041,31.278-83.415,75.058-83.415c43.797,0,75.068,33.374,75.068,83.415v642.268
		c0,50.041-31.271,83.371-75.069,83.371c-43.778,0-75.057-33.33-75.057-83.371V831.354z"/>
	<path fill="#1D547A" d="M4155.046,831.354c0-50.041,31.292-83.415,75.082-83.415c43.796,0,75.095,33.374,75.095,83.415v204.339
		c39.599-34.38,90.705-52.101,142.828-52.101c161.627,0,241.897,151.182,241.897,297.144c0,141.798-95.919,282.539-247.124,282.539
		c-51.07,0-109.484-22.936-137.602-68.766c-9.412,39.605-33.375,62.496-75.096,62.496c-43.779,0-75.082-33.331-75.082-83.372
		L4155.046,831.354L4155.046,831.354z M4423.021,1425.634c78.199,0,116.752-81.312,116.752-151.181
		c0-70.879-38.541-153.244-116.752-153.244c-80.283,0-117.799,75.092-117.799,148.02
		C4305.223,1342.219,4340.648,1425.634,4423.021,1425.634z"/>
	<path fill="#1D547A" d="M5299.014,1459.02c0,38.56,0,97.985-71.957,97.985c-43.783,0-61.479-23.944-71.895-63.545
		c-38.564,45.868-85.523,69.826-142.85,69.826c-140.732,0-248.123-119.908-248.123-288.81
		c0-164.685,110.483-290.873,248.123-290.873c55.269,0,109.498,21.894,142.85,68.813c4.158-36.492,35.438-62.595,71.895-62.595
		c71.957,0,71.957,59.429,71.957,98.026V1459.02z M5033.158,1425.634c78.2,0,115.725-79.206,115.725-151.181
		s-36.471-153.244-115.725-153.244c-82.372,0-118.883,81.27-118.883,153.244C4914.275,1346.427,4951.852,1425.634,5033.158,1425.634
		z"/>
	<path fill="#1D547A" d="M5417.01,1073.229c0-50.035,31.288-83.409,75.092-83.409c38.564,0,63.588,20.881,68.789,56.312
		c36.518-39.604,84.469-62.54,139.734-62.54c62.535,0,115.725,26.056,155.321,76.1c41.722-47.984,107.392-76.1,158.483-76.1
		c121.967,0,205.381,70.873,205.381,202.233v287.795c0,50.041-31.267,83.371-75.057,83.371c-43.791,0-75.051-33.33-75.051-83.371
		v-261.7c0-60.479-33.369-103.192-87.582-103.192c-55.289,0-88.641,42.713-88.641,103.192v261.7
		c0,50.041-31.277,83.371-75.063,83.371c-43.789,0-75.044-33.33-75.044-83.371v-261.7c0-60.479-33.374-103.192-87.587-103.192
		c-61.534,0-88.663,42.713-88.663,103.192v261.7c0,50.041-31.249,83.371-75.035,83.371c-43.792,0-75.094-33.33-75.094-83.371
		v-400.394h0.016V1073.229z"/>
</g>
</svg>
