<?xml version="1.0" encoding="utf-8"?>
<!-- Generator: Adobe Illustrator 16.0.3, SVG Export Plug-In . SVG Version: 6.00 Build 0)  -->
<!DOCTYPE svg PUBLIC "-//W3C//DTD SVG 1.1//EN" "http://www.w3.org/Graphics/SVG/1.1/DTD/svg11.dtd">
<svg version="1.1" id="Layer_1" xmlns="http://www.w3.org/2000/svg" xmlns:xlink="http://www.w3.org/1999/xlink" x="0px" y="0px"
	 width="133px" height="97.5px" viewBox="0 0 133 97.5" enable-background="new 0 0 133 97.5" xml:space="preserve">
<g>
	<g id="VuzQff_8_">
		<g>
			<g>
				<path fill="#FBCC63" d="M107.002,25.5c-0.23,7.887-2.646,14.438-7.885,19.83c-2.055,2.113-5.102,2.246-7.07,0.381
					c-2.047-1.939-2.035-4.929,0.023-7.188c6.467-7.076,6.947-16.765,1.18-23.938c-0.439-0.55-0.92-1.083-1.447-1.542
					c-0.961-0.837-2.004-0.815-2.918,0.045c-0.902,0.85-1.025,1.878-0.289,2.92c0.326,0.458,0.73,0.853,1.084,1.294
					c4.07,5.074,3.957,12.503-0.246,17.453c-1.024,1.207-2.246,2.07-3.897,1.814c-3.209-0.497-4.513-4.046-2.449-6.576
					c2.312-2.844,2.358-4.762,0.353-7.922c-0.273-0.428-0.062-1.162-0.076-1.758c0.578,0.135,1.338,0.081,1.699,0.434
					c2.385,2.383,2.543,6.901,0.438,9.766c-0.223,0.305-0.484,0.58-0.719,0.873c-0.693,0.865-0.73,1.787,0.076,2.527
					c0.811,0.75,1.748,0.642,2.514-0.152c2.234-2.311,3.295-5.09,3.191-8.302c-0.099-3.011-1.322-5.513-3.357-7.7
					c-1.771-1.901-1.646-4.642,0.17-6.332c1.812-1.685,4.496-1.547,6.324,0.324c7.285,7.468,7.539,19.711,0.572,27.607
					c-0.279,0.318-0.586,0.616-0.854,0.941c-0.974,1.199-0.881,2.84,0.203,3.822c1.049,0.949,2.604,0.939,3.69-0.141
					c4.109-4.092,6.549-9.049,7.26-14.789c1.007-8.094-1.405-15.125-6.913-21.11c-0.55-0.595-1.06-1.252-0.271-1.924
					c0.73-0.62,1.392-0.152,1.951,0.448c4.195,4.521,6.711,9.815,7.384,15.965C106.844,23.693,106.936,24.816,107.002,25.5z"/>
				<path fill="#FBCC63" d="M77.07,29.22c-2.109-0.161-3.187-1.389-3.301-3.377c-0.113-1.916,1.578-3.404,3.571-3.287
					c2.156,0.125,3.097,1.365,3.056,3.443C80.346,28.166,79.098,29.1,77.07,29.22z"/>
			</g>
		</g>
	</g>
	<g>
		<g>
			<g>
				<g>
					<path fill="#615562" d="M38.959,11.4h-7.416c-3.268,0-4.629-2.382-4.629-4.692c0-2.383,1.703-4.7,4.629-4.7H65.91
						c2.926,0,4.631,2.316,4.631,4.7c0,2.31-1.363,4.692-4.631,4.692H49.168v34.167c0,3.399-2.178,5.308-5.105,5.308
						s-5.104-1.908-5.104-5.308V11.4z"/>
				</g>
			</g>
			<g>
				<path fill="#615562" d="M79.012,40.441c-1.299,0.412-2.758,0.633-4.377,0.633h-6.871V11.4h6.189c1.98,0,3.709,0.297,5.225,0.822
					c2.178-2.89,5.012-5.256,8.268-6.896c-3.612-2.147-8.094-3.317-13.354-3.317H62.793c-3.062,0-5.24,2.113-5.24,5.24V45.36
					c0,3.88,3.133,5.106,5.379,5.106H74.77c4.756,0,8.957-1.065,12.438-3.029C83.969,45.757,81.162,43.357,79.012,40.441z"/>
			</g>
		</g>
	</g>
	<g>
		<g>
			<g>
				<g>
					<g enable-background="new    ">
						<path fill="#615562" d="M6.137,68.489h-0.97c-1.591,0-2.25-0.62-2.25-1.862c0-1.241,0.66-1.862,2.25-1.862h0.97v-3.453
							c0-1.863,1.125-2.833,2.833-2.833c1.708,0,2.833,0.97,2.833,2.833v3.453h1.708c1.668,0,2.561,0.504,2.561,1.862
							s-0.893,1.862-2.561,1.862h-1.708V79.82c0,0.854,0.466,1.319,1.475,1.319h0.815c1.242,0,1.979,0.698,1.979,1.901
							c0,1.63-1.397,2.522-4.113,2.522c-4.113,0-5.82-1.708-5.82-5.045V68.489z"/>
						<path fill="#615562" d="M37.839,79.587c0,2.367,0.582,2.911,0.582,3.803c0,1.281-1.203,2.174-2.561,2.174
							c-2.445,0-3.26-1.553-3.337-3.299c-2.211,2.444-4.772,3.299-7.76,3.299c-3.221,0-6.403-2.212-6.403-5.782
							c0-4.695,3.57-6.015,7.916-6.519l3.454-0.389c1.358-0.155,2.444-0.465,2.444-2.095s-1.668-2.328-3.57-2.328
							c-4.191,0-4.307,3.104-6.558,3.104c-1.436,0-2.406-1.009-2.406-2.173c0-2.25,3.182-5.122,9.002-5.122
							c5.433,0,9.197,1.746,9.197,5.821V79.587z M32.173,75.513c-0.621,0.582-1.785,0.776-2.444,0.893l-2.057,0.311
							c-2.367,0.35-3.647,1.087-3.647,2.794c0,1.28,1.203,2.328,3.143,2.328c3.104,0,5.005-2.018,5.005-4.113V75.513z"/>
						<path fill="#615562" d="M42.727,66.938c0-1.746,0.815-2.678,2.561-2.678c1.668,0,2.561,0.932,2.561,2.678v0.893h0.078
							c0.931-2.406,3.221-3.57,5.976-3.57c4.734,0,8.886,3.454,8.886,10.788c0,5.432-2.755,10.516-8.731,10.516
							c-2.6,0-4.54-1.048-5.587-2.872h-0.078v7.566c0,1.863-1.125,2.833-2.833,2.833c-1.707,0-2.833-0.97-2.833-2.833V66.938z
							 M52.622,68.684c-3.298,0-4.54,2.949-4.54,6.17c0,2.91,1.086,6.325,4.54,6.286c3.608,0,4.501-3.647,4.501-6.286
							C57.123,71.517,55.648,68.762,52.622,68.684z"/>
						<path fill="#615562" d="M85.643,82.886c0,1.746-0.814,2.678-2.561,2.678c-1.668,0-2.561-0.932-2.561-2.678v-0.893h-0.078
							c-0.932,2.406-3.221,3.57-5.976,3.57c-4.733,0-8.886-3.454-8.886-10.788c0-5.432,2.755-10.516,8.73-10.516
							c2.522,0,4.463,1.048,5.588,2.872h0.078v-7.684c0-1.862,1.125-2.832,2.832-2.832s2.832,0.97,2.832,2.832V82.886z
							 M75.748,81.14c3.299,0,4.541-2.949,4.541-6.17c0-2.91-1.088-6.325-4.541-6.286c-3.608,0-4.501,3.647-4.501,6.286
							C71.247,78.307,72.722,81.062,75.748,81.14z"/>
						<path fill="#615562" d="M108.963,79.587c0,2.367,0.582,2.911,0.582,3.803c0,1.281-1.203,2.174-2.561,2.174
							c-2.445,0-3.26-1.553-3.338-3.299c-2.211,2.444-4.771,3.299-7.76,3.299c-3.221,0-6.402-2.212-6.402-5.782
							c0-4.695,3.569-6.015,7.916-6.519l3.453-0.389c1.357-0.155,2.444-0.465,2.444-2.095s-1.669-2.328-3.569-2.328
							c-4.191,0-4.308,3.104-6.559,3.104c-1.436,0-2.405-1.009-2.405-2.173c0-2.25,3.182-5.122,9.002-5.122
							c5.433,0,9.196,1.746,9.196,5.821V79.587z M103.298,75.513c-0.62,0.582-1.784,0.776-2.444,0.893l-2.057,0.311
							c-2.367,0.35-3.647,1.087-3.647,2.794c0,1.28,1.202,2.328,3.144,2.328c3.104,0,5.005-2.018,5.005-4.113V75.513z"/>
						<path fill="#615562" d="M115.326,68.489h-0.97c-1.591,0-2.251-0.62-2.251-1.862c0-1.241,0.66-1.862,2.251-1.862h0.97v-3.453
							c0-1.863,1.126-2.833,2.833-2.833c1.708,0,2.833,0.97,2.833,2.833v3.453h1.707c1.668,0,2.561,0.504,2.561,1.862
							s-0.893,1.862-2.561,1.862h-1.707V79.82c0,0.854,0.465,1.319,1.475,1.319h0.814c1.242,0,1.979,0.698,1.979,1.901
							c0,1.63-1.396,2.522-4.113,2.522c-4.112,0-5.82-1.708-5.82-5.045V68.489z"/>
					</g>
				</g>
			</g>
			<g>
				<g enable-background="new    ">
					<path fill="#615562" d="M57.313,95.291c-1.507,0-2.544-1.058-2.544-2.488v-0.014c0-1.376,1.071-2.503,2.537-2.503
						c0.871,0,1.396,0.235,1.901,0.664l-0.671,0.809c-0.373-0.311-0.705-0.491-1.265-0.491c-0.774,0-1.39,0.685-1.39,1.507v0.015
						c0,0.885,0.608,1.534,1.466,1.534c0.387,0,0.732-0.097,1.002-0.29v-0.691h-1.071v-0.919h2.101v2.101
						C58.882,94.945,58.198,95.291,57.313,95.291z"/>
					<path fill="#615562" d="M60.408,95.208v-4.839h3.65v0.947h-2.592v0.981h2.281v0.947h-2.281v1.016h2.626v0.947H60.408z"/>
					<path fill="#615562" d="M67.235,91.351v3.857h-1.064v-3.857h-1.473v-0.981h4.009v0.981H67.235z"/>
					<path fill="#615562" d="M74.029,93.279v1.929h-1.064V93.3l-1.859-2.931h1.244l1.154,1.942l1.176-1.942h1.209L74.029,93.279z"/>
					<path fill="#615562" d="M78.492,95.291c-1.492,0-2.564-1.113-2.564-2.488v-0.014c0-1.376,1.086-2.503,2.579-2.503
						s2.564,1.113,2.564,2.488v0.015C81.071,94.164,79.986,95.291,78.492,95.291z M79.958,92.789c0-0.83-0.608-1.521-1.466-1.521
						c-0.856,0-1.451,0.678-1.451,1.507v0.015c0,0.829,0.608,1.521,1.466,1.521c0.856,0,1.451-0.678,1.451-1.507V92.789z"/>
					<path fill="#615562" d="M84.043,95.284c-1.301,0-2.096-0.726-2.096-2.149v-2.766h1.064v2.737c0,0.788,0.395,1.196,1.045,1.196
						c0.649,0,1.043-0.395,1.043-1.161v-2.772h1.064v2.73C86.164,94.565,85.342,95.284,84.043,95.284z"/>
					<path fill="#615562" d="M90.193,95.208l-1.037-1.549h-0.837v1.549h-1.064v-4.839h2.212c1.141,0,1.824,0.602,1.824,1.597v0.015
						c0,0.78-0.421,1.271-1.036,1.499l1.183,1.729H90.193z M90.213,92.021c0-0.456-0.317-0.691-0.836-0.691h-1.058v1.39h1.079
						c0.518,0,0.814-0.276,0.814-0.685V92.021z"/>
					<path fill="#615562" d="M96.524,91.351v3.857H95.46v-3.857h-1.473v-0.981h4.009v0.981H96.524z"/>
					<path fill="#615562" d="M101.795,95.208l-0.441-1.085h-2.047l-0.442,1.085h-1.085l2.074-4.873h0.98l2.074,4.873H101.795z
						 M100.33,91.613l-0.643,1.569h1.285L100.33,91.613z"/>
					<path fill="#615562" d="M105.533,93.757h-0.809v1.451h-1.064v-4.839h1.977c1.154,0,1.854,0.685,1.854,1.673v0.014
						C107.49,93.176,106.619,93.757,105.533,93.757z M106.411,92.062c0-0.477-0.331-0.732-0.864-0.732h-0.822v1.479h0.844
						c0.531,0,0.843-0.318,0.843-0.732V92.062z"/>
					<path fill="#615562" d="M112.708,95.291c-1.493,0-2.564-1.113-2.564-2.488v-0.014c0-1.376,1.085-2.503,2.579-2.503
						c1.492,0,2.564,1.113,2.564,2.488v0.015C115.287,94.164,114.201,95.291,112.708,95.291z M114.174,92.789
						c0-0.83-0.608-1.521-1.466-1.521c-0.856,0-1.452,0.678-1.452,1.507v0.015c0,0.829,0.609,1.521,1.467,1.521
						c0.856,0,1.451-0.678,1.451-1.507V92.789z"/>
					<path fill="#615562" d="M119.633,95.208l-2.343-3.076v3.076h-1.051v-4.839h0.981l2.268,2.979v-2.979h1.051v4.839H119.633z"/>
				</g>
			</g>
		</g>
	</g>
</g>
</svg>
