<?xml version="1.0" encoding="utf-8"?>
<!-- Generator: Adobe Illustrator 16.0.3, SVG Export Plug-In . SVG Version: 6.00 Build 0)  -->
<!DOCTYPE svg PUBLIC "-//W3C//DTD SVG 1.1//EN" "http://www.w3.org/Graphics/SVG/1.1/DTD/svg11.dtd">
<svg version="1.1" id="Layer_1" xmlns="http://www.w3.org/2000/svg" xmlns:xlink="http://www.w3.org/1999/xlink" x="0px" y="0px"
	 width="6727.5px" height="1872.5px" viewBox="0 0 6727.5 1872.5" enable-background="new 0 0 6727.5 1872.5" xml:space="preserve">
<g>
	<path fill="#444444" d="M565.487,1774.837c-289.34,0-524.744-235.384-524.744-524.76c0-289.336,235.404-524.759,524.744-524.759
		c289.36,0,524.76,235.423,524.76,524.759C1090.247,1539.453,854.857,1774.837,565.487,1774.837z M565.487,853.873
		c-218.479,0-396.228,177.73-396.228,396.205s177.744,396.241,396.228,396.241c218.491,0,396.228-177.769,396.228-396.241
		C961.715,1031.604,783.979,853.873,565.487,853.873z"/>
	<path fill="#444444" d="M567.479,813.766h-98.586c0-132.646,61.718-236.098,165.045-276.671
		c80.463-31.604,169.729-15.672,223.933,39.404c53.979,39.88,100.509,58.301,134.685,53.386
		c32.581-4.716,52.369-31.219,66.833-50.549c2.757-3.74,5.29-7.052,7.529-9.89l76.97,61.613c-1.65,2.044-3.459,4.481-5.498,7.223
		c-19.025,25.517-58.687,78.625-131.791,89.159c-62.257,8.97-133.211-16.068-211.018-74.445l-3.541-2.659l-2.981-3.221
		c-26.058-28.041-75.011-35.571-119.056-18.284C639.17,640.928,567.479,683.199,567.479,813.766z"/>
	<g>
		<rect x="1177.67" y="383.788" fill="#444444" width="61.006" height="228.759"/>
		<rect x="1093.786" y="467.68" fill="#444444" width="228.757" height="60.992"/>
	</g>
	<g>
		<path fill="#444444" d="M498.899,1374.005c0,52.622-42.624,95.27-95.225,95.27c-52.604,0-95.224-42.646-95.224-95.27
			c0-52.578,42.619-95.185,95.224-95.185C456.275,1278.82,498.899,1321.427,498.899,1374.005z"/>
		<path fill="#444444" d="M800.557,1374.005c0,52.622-42.621,95.27-95.224,95.27c-52.604,0-95.224-42.646-95.224-95.27
			c0-52.578,42.619-95.185,95.224-95.185C757.936,1278.82,800.557,1321.427,800.557,1374.005z"/>
	</g>
</g>
<g>
	<path fill="#35BAFF" d="M1318.621,1106.613c-7.278-18.773-9.385-30.221-9.385-43.814c0-47.938,37.546-72.979,78.191-72.979
		c41.708,0,59.428,30.268,66.706,53.199l95.938,296.088h2.089l95.938-296.088c7.279-22.934,24.998-53.199,66.684-53.199
		c40.678,0,78.225,25.04,78.225,72.979c0,13.606-2.065,25.041-9.388,43.814l-151.186,387.896
		c-14.604,38.538-30.221,62.496-81.312,62.496c-51.096,0-66.729-23.944-81.363-62.496L1318.621,1106.613z"/>
	<path fill="#35BAFF" d="M2024.677,847.02c0,46.88-37.545,86.533-84.461,86.533c-44.819,0-84.442-40.693-84.442-86.533
		c0-42.761,39.637-82.364,84.442-82.364C1985.043,764.653,2024.677,803.193,2024.677,847.02z M1865.16,1073.229
		c0-50.034,31.24-83.408,75.056-83.408c43.772,0,75.095,33.374,75.095,83.408v400.394c0,50.041-31.32,83.371-75.095,83.371
		c-43.813,0-75.056-33.33-75.056-83.371V1073.229z"/>
	<path fill="#35BAFF" d="M2447.117,1158.718c-28.145,0-85.479-43.724-134.467-43.724c-27.123,0-51.094,12.494-51.094,41.659
		c0,69.866,260.684,59.427,260.684,230.427c0,100.088-84.479,176.182-213.75,176.182c-84.443,0-209.604-47.938-209.604-115.748
		c0-22.886,22.936-66.701,64.678-66.701c58.373,0,84.457,51.096,155.348,51.096c45.875,0,59.434-14.604,59.434-42.768
		c0-68.809-260.684-58.365-260.684-230.423c0-104.253,84.504-175.126,203.336-175.126c74.024,0,187.672,34.381,187.672,108.421
		C2508.652,1126.399,2482.6,1158.718,2447.117,1158.718z"/>
	<path fill="#35BAFF" d="M2607.898,1073.229c0-50.034,31.289-83.408,75.029-83.408c43.816,0,75.096,33.374,75.096,83.408v267.986
		c0,62.588,46.934,96.924,96.975,96.924c50.064,0,96.975-34.336,96.975-96.924v-267.986c0-50.034,31.277-83.414,75.032-83.414
		c43.813,0,75.081,33.38,75.081,83.414v271.094c0,133.461-88.604,218.939-247.1,218.939s-247.104-85.479-247.104-218.939v-271.094
		H2607.898z"/>
	<path fill="#35BAFF" d="M3733.084,1459.02c0,38.561,0,97.985-71.949,97.985c-43.771,0-61.516-23.944-71.957-63.545
		c-38.576,45.868-85.475,69.826-142.793,69.826c-140.788,0-248.178-119.908-248.178-288.81
		c0-164.686,110.521-290.873,248.178-290.873c55.205,0,109.444,21.894,142.793,68.812c4.16-36.492,35.463-62.595,71.957-62.595
		c71.949,0,71.949,59.429,71.949,98.026V1459.02z M3467.223,1425.634c78.176,0,115.723-79.206,115.723-151.181
		s-36.49-153.244-115.723-153.244c-82.371,0-118.889,81.27-118.889,153.244C3348.334,1346.427,3385.904,1425.634,3467.223,1425.634z
		"/>
	<path fill="#35BAFF" d="M3849.009,831.354c0-50.041,31.278-83.414,75.059-83.414c43.797,0,75.067,33.374,75.067,83.414v642.269
		c0,50.041-31.271,83.371-75.068,83.371c-43.778,0-75.057-33.33-75.057-83.371L3849.009,831.354L3849.009,831.354z"/>
</g>
<g>
	<path fill="#444444" d="M4155.046,831.354c0-50.041,31.292-83.414,75.082-83.414c43.796,0,75.095,33.374,75.095,83.414v204.34
		c39.6-34.381,90.705-52.102,142.828-52.102c161.627,0,241.897,151.182,241.897,297.145c0,141.798-95.919,282.539-247.124,282.539
		c-51.07,0-109.484-22.937-137.602-68.767c-9.412,39.605-33.375,62.496-75.097,62.496c-43.778,0-75.082-33.331-75.082-83.372
		L4155.046,831.354L4155.046,831.354z M4423.021,1425.634c78.199,0,116.752-81.312,116.752-151.181
		c0-70.879-38.541-153.244-116.752-153.244c-80.283,0-117.799,75.092-117.799,148.02
		C4305.223,1342.219,4340.648,1425.634,4423.021,1425.634z"/>
	<path fill="#444444" d="M5299.014,1459.02c0,38.561,0,97.985-71.957,97.985c-43.783,0-61.479-23.944-71.895-63.545
		c-38.564,45.868-85.523,69.826-142.85,69.826c-140.732,0-248.123-119.908-248.123-288.81
		c0-164.686,110.482-290.873,248.123-290.873c55.269,0,109.498,21.894,142.85,68.812c4.158-36.492,35.438-62.595,71.895-62.595
		c71.957,0,71.957,59.429,71.957,98.026V1459.02z M5033.158,1425.634c78.2,0,115.725-79.206,115.725-151.181
		s-36.471-153.244-115.725-153.244c-82.372,0-118.883,81.27-118.883,153.244C4914.275,1346.427,4951.852,1425.634,5033.158,1425.634
		z"/>
	<path fill="#444444" d="M5417.01,1073.229c0-50.034,31.288-83.408,75.092-83.408c38.564,0,63.588,20.881,68.789,56.312
		c36.518-39.604,84.469-62.54,139.734-62.54c62.535,0,115.725,26.057,155.32,76.101c41.723-47.984,107.393-76.101,158.482-76.101
		c121.967,0,205.381,70.873,205.381,202.233v287.795c0,50.041-31.267,83.371-75.057,83.371c-43.791,0-75.051-33.33-75.051-83.371
		v-261.7c0-60.479-33.369-103.191-87.582-103.191c-55.289,0-88.641,42.713-88.641,103.191v261.7
		c0,50.041-31.277,83.371-75.063,83.371c-43.789,0-75.044-33.33-75.044-83.371v-261.7c0-60.479-33.374-103.191-87.587-103.191
		c-61.534,0-88.663,42.713-88.663,103.191v261.7c0,50.041-31.249,83.371-75.035,83.371c-43.792,0-75.094-33.33-75.094-83.371
		v-400.394h0.016v0.002H5417.01z"/>
</g>
<g>
	<path fill="#444444" d="M4351.428,0c-97.225,0-176.327-79.095-176.327-176.334c0-97.227,79.103-176.336,176.327-176.336
		c97.236,0,176.335,79.109,176.335,176.336C4527.763-79.095,4448.668,0,4351.428,0z M4351.428-309.471
		c-73.414,0-133.144,59.722-133.144,133.136s59.726,133.147,133.144,133.147c73.422,0,133.147-59.733,133.147-133.147
		S4424.85-309.471,4351.428-309.471z"/>
	<path fill="#444444" d="M4352.096-322.95h-33.127c0-44.572,20.739-79.336,55.461-92.969c27.041-10.621,57.035-5.266,75.251,13.242
		c18.138,13.4,33.774,19.59,45.257,17.938c10.947-1.584,17.598-10.49,22.456-16.986c0.927-1.256,1.778-2.37,2.529-3.323
		l25.866,20.704c-0.555,0.686-1.161,1.505-1.848,2.427c-6.392,8.574-19.722,26.42-44.287,29.959
		c-20.921,3.015-44.764-5.398-70.906-25.016l-1.193-0.893l-0.998-1.082c-8.756-9.424-25.208-11.954-40.008-6.144
		C4376.191-381.028,4352.096-366.823,4352.096-322.95z"/>
	<g>
		<rect x="4557.143" y="-467.435" fill="#444444" width="20.497" height="76.869"/>
		<rect x="4528.955" y="-439.245" fill="#444444" width="76.867" height="20.494"/>
	</g>
	<g>
		<path fill="#444444" d="M4329.051-134.692c0,17.685-14.32,32.013-31.994,32.013c-17.678,0-32-14.329-32-32.013
			c0-17.667,14.322-31.984,32-31.984C4314.73-166.677,4329.051-152.359,4329.051-134.692z"/>
		<path fill="#444444" d="M4430.419-134.692c0,17.685-14.321,32.013-31.995,32.013c-17.678,0-31.998-14.329-31.998-32.013
			c0-17.667,14.32-31.984,31.998-31.984C4416.098-166.677,4430.419-152.359,4430.419-134.692z"/>
	</g>
</g>
<g>
	<path fill="#35BAFF" d="M4604.508-224.542c-2.45-6.31-3.154-10.156-3.154-14.724c0-16.109,12.615-24.523,26.271-24.523
		c14.016,0,19.969,10.171,22.416,17.876l32.24,99.494h0.7l32.239-99.494c2.443-7.705,8.4-17.876,22.406-17.876
		c13.667,0,26.285,8.415,26.285,24.523c0,4.572-0.693,8.415-3.154,14.724L4709.953-94.2c-4.904,12.953-10.153,21.001-27.32,21.001
		c-17.17,0-22.424-8.045-27.342-21.001L4604.508-224.542z"/>
	<path fill="#35BAFF" d="M4841.761-311.774c0,15.751-12.614,29.078-28.381,29.078c-15.062,0-28.377-13.675-28.377-29.078
		c0-14.37,13.323-27.678,28.377-27.678C4828.441-339.452,4841.761-326.501,4841.761-311.774z M4788.158-235.762
		c0-16.813,10.498-28.028,25.222-28.028c14.71,0,25.233,11.215,25.233,28.028v134.545c0,16.815-10.523,28.014-25.233,28.014
		c-14.724,0-25.222-11.199-25.222-28.014V-235.762z"/>
	<path fill="#35BAFF" d="M4983.715-207.034c-9.457,0-28.723-14.693-45.186-14.693c-9.111,0-17.167,4.198-17.167,14
		c0,23.478,87.597,19.968,87.597,77.43c0,33.633-28.389,59.201-71.827,59.201c-28.374,0-70.433-16.107-70.433-38.894
		c0-7.689,7.707-22.413,21.73-22.413c19.617,0,28.384,17.17,52.205,17.17c15.414,0,19.97-4.908,19.97-14.372
		c0-23.124-87.597-19.614-87.597-77.43c0-35.033,28.396-58.849,68.324-58.849c24.877,0,63.066,11.553,63.066,36.435
		C5004.392-217.894,4995.636-207.034,4983.715-207.034z"/>
	<path fill="#35BAFF" d="M5037.741-235.762c0-16.813,10.517-28.028,25.212-28.028c14.724,0,25.236,11.215,25.236,28.028v90.05
		c0,21.033,15.77,32.57,32.585,32.57c16.825,0,32.585-11.537,32.585-32.57v-90.05c0-16.813,10.512-28.03,25.215-28.03
		c14.724,0,25.229,11.217,25.229,28.03v91.096c0,44.847-29.771,73.569-83.033,73.569c-53.262,0-83.032-28.722-83.032-73.569v-91.096
		H5037.741z"/>
	<path fill="#35BAFF" d="M5415.838-106.125c0,12.956,0,32.926-24.178,32.926c-14.709,0-20.67-8.045-24.18-21.353
		c-12.96,15.414-28.723,23.465-47.98,23.465c-47.312,0-83.396-40.295-83.396-97.049c0-55.34,37.137-97.743,83.396-97.743
		c18.551,0,36.773,7.357,47.98,23.123c1.397-12.263,11.918-21.033,24.18-21.033c24.178,0,24.178,19.97,24.178,32.938V-106.125z
		 M5326.503-117.342c26.268,0,38.883-26.617,38.883-50.804c0-24.184-12.259-51.492-38.883-51.492
		c-27.681,0-39.954,27.308-39.954,51.492C5286.549-143.958,5299.175-117.342,5326.503-117.342z"/>
	<path fill="#35BAFF" d="M5454.793-317.04c0-16.815,10.509-28.03,25.222-28.03c14.717,0,25.226,11.215,25.226,28.03v215.823
		c0,16.815-10.509,28.014-25.226,28.014c-14.71,0-25.222-11.199-25.222-28.014V-317.04L5454.793-317.04z"/>
</g>
<g>
	<path fill="#444444" d="M5557.629-317.04c0-16.815,10.518-28.03,25.23-28.03c14.717,0,25.236,11.215,25.236,28.03v68.665
		c13.305-11.553,30.479-17.509,47.995-17.509c54.311,0,81.282,50.803,81.282,99.85c0,47.649-32.231,94.943-83.039,94.943
		c-17.164,0-36.792-7.707-46.238-23.11c-3.165,13.308-11.217,21.001-25.236,21.001c-14.709,0-25.23-11.199-25.23-28.014V-317.04
		L5557.629-317.04z M5647.68-117.342c26.275,0,39.23-27.324,39.23-50.804c0-23.816-12.951-51.492-39.23-51.492
		c-26.979,0-39.584,25.233-39.584,49.739C5608.096-145.374,5620-117.342,5647.68-117.342z"/>
	<path fill="#444444" d="M5942.039-106.125c0,12.956,0,32.926-24.182,32.926c-14.713,0-20.658-8.045-24.158-21.353
		c-12.956,15.414-28.736,23.465-48.002,23.465c-47.29,0-83.378-40.295-83.378-97.049c0-55.34,37.126-97.743,83.378-97.743
		c18.572,0,36.795,7.357,48.002,23.123c1.397-12.263,11.906-21.033,24.158-21.033c24.182,0,24.182,19.97,24.182,32.938V-106.125z
		 M5852.703-117.342c26.279,0,38.887-26.617,38.887-50.804c0-24.184-12.256-51.492-38.887-51.492
		c-27.68,0-39.949,27.308-39.949,51.492C5812.754-143.958,5825.383-117.342,5852.703-117.342z"/>
	<path fill="#444444" d="M5981.69-235.762c0-16.813,10.513-28.028,25.229-28.028c12.96,0,21.371,7.017,23.117,18.924
		c12.27-13.308,28.385-21.017,46.956-21.017c21.012,0,38.886,8.756,52.19,25.573c14.021-16.125,36.088-25.573,53.256-25.573
		c40.984,0,69.013,23.816,69.013,67.957v96.709c0,16.815-10.506,28.014-25.219,28.014c-14.717,0-25.22-11.199-25.22-28.014v-87.941
		c0-20.322-11.213-34.675-29.43-34.675c-18.578,0-29.789,14.354-29.789,34.675v87.941c0,16.815-10.509,28.014-25.222,28.014
		c-14.714,0-25.22-11.199-25.22-28.014v-87.941c0-20.322-11.213-34.675-29.43-34.675c-20.677,0-29.792,14.354-29.792,34.675v87.941
		c0,16.815-10.503,28.014-25.216,28.014c-14.717,0-25.232-11.199-25.232-28.014v-134.545h0.003l0,0H5981.69z"/>
</g>
</svg>
