<?xml version="1.0" encoding="utf-8"?>
<!-- Generator: Adobe Illustrator 16.0.3, SVG Export Plug-In . SVG Version: 6.00 Build 0)  -->
<!DOCTYPE svg PUBLIC "-//W3C//DTD SVG 1.1//EN" "http://www.w3.org/Graphics/SVG/1.1/DTD/svg11.dtd">
<svg version="1.1" id="Layer_1" xmlns="http://www.w3.org/2000/svg" xmlns:xlink="http://www.w3.org/1999/xlink" x="0px" y="0px"
	 width="248.627px" height="52.305px" viewBox="0 0 248.627 52.305" enable-background="new 0 0 248.627 52.305"
	 xml:space="preserve">
<g>
	<g id="VuzQff_4_">
		<g>
			<path fill="#F7C862" d="M90.768,25.144c-0.246,8.443-2.832,15.455-8.439,21.226c-2.201,2.264-5.46,2.405-7.569,0.409
				c-2.19-2.075-2.177-5.275,0.026-7.692c6.923-7.574,7.438-17.946,1.264-25.621c-0.471-0.591-0.986-1.16-1.551-1.652
				c-1.027-0.896-2.144-0.872-3.123,0.049c-0.965,0.91-1.098,2.011-0.311,3.126c0.35,0.49,0.784,0.914,1.162,1.385
				c4.356,5.431,4.236,13.386-0.264,18.681c-1.097,1.293-2.404,2.217-4.172,1.941c-3.435-0.531-4.831-4.33-2.622-7.037
				c2.477-3.044,2.527-5.099,0.377-8.479c-0.292-0.459-0.067-1.244-0.082-1.882c0.618,0.145,1.434,0.087,1.818,0.464
				c2.553,2.55,2.722,7.39,0.469,10.452c-0.239,0.328-0.519,0.621-0.77,0.937c-0.743,0.926-0.78,1.913,0.08,2.704
				c0.869,0.805,1.873,0.688,2.692-0.161c2.392-2.475,3.528-5.45,3.417-8.889c-0.105-3.224-1.416-5.9-3.596-8.24
				c-1.895-2.036-1.762-4.97,0.184-6.776c1.94-1.805,4.812-1.657,6.769,0.346c7.798,7.993,8.069,21.1,0.611,29.551
				c-0.298,0.338-0.626,0.657-0.913,1.007c-1.041,1.282-0.942,3.037,0.217,4.091c1.122,1.016,2.79,1.005,3.951-0.149
				c4.4-4.381,7.008-9.688,7.77-15.83c1.078-8.663-1.504-16.189-7.4-22.595c-0.587-0.638-1.133-1.341-0.291-2.061
				c0.781-0.664,1.489-0.162,2.089,0.479c4.492,4.841,7.185,10.506,7.903,17.089C90.601,23.211,90.698,24.412,90.768,25.144z"/>
			<path fill="#F7C862" d="M58.73,29.128c-2.258-0.174-3.409-1.487-3.532-3.616c-0.122-2.049,1.688-3.642,3.823-3.517
				c2.308,0.133,3.314,1.461,3.269,3.687C62.237,27.997,60.901,28.999,58.73,29.128z"/>
		</g>
	</g>
	<g>
		<path fill="#FFFFFF" d="M17.938,10.053h-7.94c-3.497,0-4.952-2.548-4.952-5.021C5.046,2.481,6.867,0,9.998,0h36.787
			c3.131,0,4.955,2.48,4.955,5.032c0,2.473-1.459,5.021-4.955,5.021H28.864v36.569c0,3.643-2.331,5.683-5.465,5.683
			c-3.132,0-5.462-2.04-5.462-5.683L17.938,10.053L17.938,10.053z"/>
		<path fill="#FFFFFF" d="M60.808,41.138c-1.389,0.439-2.95,0.677-4.684,0.677H48.77V10.053h6.624c2.12,0,3.969,0.319,5.592,0.878
			c2.332-3.091,5.365-5.625,8.85-7.38C65.97,1.253,61.171,0,55.541,0H43.449C40.17,0,37.84,2.263,37.84,5.609v40.793
			c0,4.153,3.354,5.467,5.758,5.467h12.671c5.089,0,9.586-1.144,13.312-3.244C66.114,46.827,63.111,44.26,60.808,41.138z"/>
	</g>
	<g>
		<g>
			<g>
				<g enable-background="new    ">
					<path fill="#FFFFFF" d="M107.184,20.342h-1.039c-1.703,0-2.409-0.664-2.409-1.993s0.706-1.994,2.409-1.994h1.039v-3.696
						c0-1.994,1.205-3.032,3.032-3.032c1.827,0,3.032,1.038,3.032,3.032v3.696h1.828c1.786,0,2.741,0.54,2.741,1.994
						c0,1.453-0.955,1.993-2.741,1.993h-1.828V32.47c0,0.914,0.499,1.412,1.579,1.412h0.872c1.329,0,2.118,0.748,2.118,2.035
						c0,1.745-1.495,2.7-4.403,2.7c-4.402,0-6.23-1.827-6.23-5.399V20.342z"/>
					<path fill="#FFFFFF" d="M141.116,32.221c0,2.534,0.623,3.115,0.623,4.07c0,1.371-1.287,2.326-2.74,2.326
						c-2.617,0-3.489-1.661-3.572-3.53c-2.367,2.616-5.109,3.53-8.307,3.53c-3.448,0-6.854-2.367-6.854-6.188
						c0-5.026,3.821-6.438,8.473-6.979l3.697-0.415c1.453-0.166,2.616-0.498,2.616-2.243c0-1.744-1.786-2.491-3.821-2.491
						c-4.486,0-4.61,3.322-7.02,3.322c-1.537,0-2.575-1.08-2.575-2.326c0-2.408,3.406-5.482,9.635-5.482
						c5.815,0,9.844,1.869,9.844,6.23V32.221z M135.053,27.86c-0.665,0.623-1.911,0.831-2.616,0.956l-2.201,0.332
						c-2.534,0.374-3.904,1.163-3.904,2.99c0,1.371,1.287,2.492,3.363,2.492c3.323,0,5.358-2.16,5.358-4.402V27.86z"/>
					<path fill="#FFFFFF" d="M146.349,18.681c0-1.869,0.873-2.866,2.742-2.866c1.785,0,2.74,0.997,2.74,2.866v0.955h0.084
						c0.996-2.575,3.447-3.821,6.396-3.821c5.066,0,9.511,3.697,9.511,11.547c0,5.814-2.949,11.256-9.345,11.256
						c-2.783,0-4.859-1.121-5.981-3.073h-0.083v8.099c0,1.994-1.205,3.032-3.032,3.032s-3.032-1.038-3.032-3.032V18.681z
						 M156.94,20.55c-3.531,0-4.859,3.156-4.859,6.604c0,3.115,1.162,6.771,4.859,6.729c3.862,0,4.818-3.904,4.818-6.729
						C161.759,23.582,160.18,20.633,156.94,20.55z"/>
					<path fill="#FFFFFF" d="M192.284,35.751c0,1.869-0.872,2.866-2.741,2.866c-1.786,0-2.741-0.997-2.741-2.866v-0.955h-0.083
						c-0.997,2.575-3.447,3.821-6.396,3.821c-5.068,0-9.512-3.696-9.512-11.547c0-5.814,2.949-11.256,9.345-11.256
						c2.7,0,4.776,1.122,5.981,3.074h0.082v-8.225c0-1.993,1.205-3.031,3.033-3.031c1.827,0,3.031,1.038,3.031,3.031V35.751z
						 M181.693,33.882c3.53,0,4.859-3.156,4.859-6.604c0-3.115-1.163-6.771-4.859-6.729c-3.862,0-4.818,3.904-4.818,6.729
						C176.875,30.851,178.454,33.799,181.693,33.882z"/>
					<path fill="#FFFFFF" d="M217.245,32.221c0,2.534,0.623,3.115,0.623,4.07c0,1.371-1.287,2.326-2.74,2.326
						c-2.617,0-3.489-1.661-3.572-3.53c-2.367,2.616-5.109,3.53-8.307,3.53c-3.447,0-6.854-2.367-6.854-6.188
						c0-5.026,3.82-6.438,8.473-6.979l3.697-0.415c1.453-0.166,2.616-0.498,2.616-2.243c0-1.744-1.786-2.491-3.821-2.491
						c-4.486,0-4.61,3.322-7.02,3.322c-1.537,0-2.574-1.08-2.574-2.326c0-2.408,3.405-5.482,9.635-5.482
						c5.815,0,9.844,1.869,9.844,6.23V32.221z M211.182,27.86c-0.665,0.623-1.911,0.831-2.616,0.956l-2.201,0.332
						c-2.534,0.374-3.904,1.163-3.904,2.99c0,1.371,1.287,2.492,3.363,2.492c3.323,0,5.358-2.16,5.358-4.402V27.86z"/>
					<path fill="#FFFFFF" d="M224.056,20.342h-1.038c-1.702,0-2.409-0.664-2.409-1.993s0.707-1.994,2.409-1.994h1.038v-3.696
						c0-1.994,1.205-3.032,3.033-3.032c1.826,0,3.031,1.038,3.031,3.032v3.696h1.828c1.785,0,2.74,0.54,2.74,1.994
						c0,1.453-0.955,1.993-2.74,1.993h-1.828V32.47c0,0.914,0.498,1.412,1.578,1.412h0.873c1.328,0,2.117,0.748,2.117,2.035
						c0,1.745-1.494,2.7-4.402,2.7c-4.402,0-6.23-1.827-6.23-5.399V20.342z"/>
				</g>
			</g>
		</g>
		<g>
			<g enable-background="new    ">
				<path fill="#FFFFFF" d="M161.962,49.028c-1.613,0-2.725-1.133-2.725-2.664v-0.015c0-1.473,1.147-2.68,2.717-2.68
					c0.932,0,1.494,0.252,2.035,0.711l-0.719,0.866c-0.398-0.333-0.754-0.526-1.354-0.526c-0.829,0-1.488,0.733-1.488,1.613v0.016
					c0,0.947,0.652,1.643,1.57,1.643c0.414,0,0.783-0.104,1.072-0.311v-0.74h-1.146v-0.984h2.249v2.25
					C163.642,48.657,162.909,49.028,161.962,49.028z"/>
				<path fill="#FFFFFF" d="M165.273,48.939v-5.181h3.907v1.015h-2.775v1.051h2.443v1.014h-2.443v1.088h2.812v1.014H165.273z"/>
				<path fill="#FFFFFF" d="M172.582,44.809v4.13h-1.14v-4.13h-1.576v-1.051h4.292v1.051H172.582z"/>
				<path fill="#FFFFFF" d="M179.854,46.874v2.064h-1.141v-2.043l-1.99-3.138h1.332l1.236,2.08l1.258-2.08h1.295L179.854,46.874z"/>
				<path fill="#FFFFFF" d="M184.631,49.028c-1.599,0-2.745-1.191-2.745-2.664v-0.015c0-1.473,1.162-2.68,2.76-2.68
					c1.599,0,2.746,1.191,2.746,2.664v0.016C187.392,47.822,186.229,49.028,184.631,49.028z M186.2,46.349
					c0-0.889-0.651-1.629-1.569-1.629c-0.917,0-1.554,0.726-1.554,1.613v0.016c0,0.888,0.65,1.628,1.568,1.628
					s1.555-0.726,1.555-1.613V46.349z"/>
				<path fill="#FFFFFF" d="M190.571,49.02c-1.392,0-2.242-0.776-2.242-2.301v-2.961h1.139v2.931c0,0.844,0.422,1.28,1.118,1.28
					s1.118-0.422,1.118-1.243v-2.968h1.139v2.924C192.843,48.25,191.962,49.02,190.571,49.02z"/>
				<path fill="#FFFFFF" d="M197.154,48.939l-1.11-1.658h-0.896v1.658h-1.14v-5.181h2.368c1.222,0,1.954,0.645,1.954,1.71v0.015
					c0,0.836-0.451,1.361-1.11,1.605l1.266,1.851H197.154z M197.177,45.527c0-0.488-0.341-0.739-0.896-0.739h-1.132v1.487h1.155
					c0.555,0,0.873-0.296,0.873-0.732V45.527z"/>
				<path fill="#FFFFFF" d="M203.932,44.809v4.13h-1.14v-4.13h-1.576v-1.051h4.292v1.051H203.932z"/>
				<path fill="#FFFFFF" d="M209.573,48.939l-0.473-1.162h-2.191l-0.474,1.162h-1.161l2.22-5.218h1.051l2.22,5.218H209.573z
					 M208.005,45.09l-0.688,1.681h1.376L208.005,45.09z"/>
				<path fill="#FFFFFF" d="M213.573,47.385h-0.865v1.554h-1.14v-5.181h2.116c1.236,0,1.984,0.733,1.984,1.791v0.015
					C215.669,46.763,214.735,47.385,213.573,47.385z M214.514,45.572c0-0.511-0.354-0.784-0.925-0.784h-0.881v1.583h0.902
					c0.57,0,0.903-0.34,0.903-0.784V45.572z"/>
				<path fill="#FFFFFF" d="M221.254,49.028c-1.599,0-2.745-1.191-2.745-2.664v-0.015c0-1.473,1.162-2.68,2.76-2.68
					c1.599,0,2.746,1.191,2.746,2.664v0.016C224.015,47.822,222.853,49.028,221.254,49.028z M222.823,46.349
					c0-0.889-0.651-1.629-1.569-1.629c-0.917,0-1.554,0.726-1.554,1.613v0.016c0,0.888,0.65,1.628,1.568,1.628
					s1.555-0.726,1.555-1.613V46.349z"/>
				<path fill="#FFFFFF" d="M228.667,48.939l-2.51-3.293v3.293h-1.125v-5.181h1.051l2.428,3.189v-3.189h1.125v5.181H228.667z"/>
			</g>
		</g>
	</g>
</g>
</svg>
