<?xml version="1.0" encoding="utf-8"?>
<!-- Generator: Adobe Illustrator 15.0.2, SVG Export Plug-In . SVG Version: 6.00 Build 0)  -->
<!DOCTYPE svg PUBLIC "-//W3C//DTD SVG 1.1//EN" "http://www.w3.org/Graphics/SVG/1.1/DTD/svg11.dtd">
<svg version="1.1" id="Layer_1" xmlns="http://www.w3.org/2000/svg" xmlns:xlink="http://www.w3.org/1999/xlink" x="0px" y="0px"
	 width="361.443px" height="146.5px" viewBox="0 0 361.443 146.5" enable-background="new 0 0 361.443 146.5" xml:space="preserve">
<g>
	<g>
		<path fill="#A5D3EB" d="M39.469,63.023c-0.675,0.473-1.226,1.091-1.639,1.832l-9.325,23.978l-9.183-23.736
			c-0.865-1.855-2.47-2.919-4.407-2.919c-1.878,0-3.442,1.011-4.293,2.773c-0.754,1.562-0.78,3.237-0.119,4.721l12.326,32.063
			c0.355,0.884,0.837,1.625,1.426,2.199c0.819,0.801,1.869,1.224,3.037,1.224h2.354c1.104,0,2.136-0.385,2.989-1.116
			c0.74-0.641,1.279-1.475,1.553-2.338l12.716-32.839c0.159-0.546,0.236-1.027,0.236-1.473c0-1.354-0.493-2.598-1.426-3.604
			C44.028,61.978,41.379,61.689,39.469,63.023z"/>
		<path fill="#A5D3EB" d="M54.229,48.807c-0.951,1.071-1.455,2.443-1.455,3.97c0,1.53,0.503,2.904,1.455,3.976
			c1.029,1.159,2.39,1.77,3.934,1.77c1.545,0,2.905-0.611,3.934-1.77c0.951-1.071,1.455-2.446,1.455-3.976
			c0-1.527-0.503-2.898-1.455-3.97C60.037,46.489,56.29,46.489,54.229,48.807z"/>
		<path fill="#A5D3EB" d="M54.531,63.834c-0.885,0.996-1.352,2.226-1.352,3.557v32.551c0,1.33,0.467,2.559,1.352,3.555
			c0.962,1.086,2.194,1.66,3.565,1.66s2.605-0.573,3.566-1.66c0.885-0.996,1.352-2.226,1.352-3.555V67.392
			c0-1.332-0.467-2.561-1.352-3.557C59.742,61.667,56.451,61.667,54.531,63.834z"/>
		<path fill="#A5D3EB" d="M93.713,81.235c-1.639-1.164-3.414-2.098-5.278-2.779c-1.626-0.593-3.109-1.159-4.458-1.709
			c-1.132-0.458-2.029-0.946-2.667-1.449c-0.209-0.165-0.504-0.476-0.64-1.209c-0.114-0.684,0.048-1.281,0.524-1.943
			c0.576-0.798,1.153-1.313,1.714-1.534c1.765-0.691,3.131-0.478,3.792-0.032c0.458,0.305,0.779,0.653,0.99,1.074
			c0.607,1.197,1.274,1.97,2.112,2.443c0.744,0.416,1.572,0.626,2.462,0.626c1.537,0,2.531-0.604,3.098-1.115
			c0.729-0.658,1.217-1.497,1.451-2.495c0.194-0.834,0.2-1.723,0.015-2.641c-0.166-0.814-0.473-1.627-0.868-2.324
			c-0.296-0.578-0.792-1.234-1.611-2.123c-0.85-0.921-2.05-1.76-3.67-2.563c-3.167-1.575-7.619-1.773-11.459,0.004
			c-1.763,0.811-3.302,1.887-4.566,3.192c-1.278,1.314-2.283,2.846-2.986,4.557c-0.746,1.804-1.01,3.779-0.786,5.865
			c0.274,2.583,1.101,4.799,2.462,6.581c1.321,1.734,2.925,3.062,4.769,3.94c1.601,0.764,3.361,1.424,5.233,1.968
			c1.583,0.456,2.897,0.954,3.902,1.477c0.764,0.396,1.311,0.867,1.67,1.435c0.185,0.292,0.489,1.021,0.452,2.511
			c-0.059,1.074-0.411,1.925-1.103,2.674c-0.588,0.633-1.62,0.956-3.064,0.956l-0.298,0.005c-1.264,0-2.285-0.291-3.127-0.891
			c-0.643-0.458-1.617-1.515-2.6-3.928c-0.298-0.753-0.712-1.414-1.254-1.982c-1.733-1.78-5.024-1.522-6.624,0.491
			c-0.766,0.951-1.171,2.163-1.171,3.497c0,0.498,0.066,1.044,0.174,1.504c0.14,0.791,0.517,1.755,1.221,3.114
			c0.666,1.292,1.604,2.599,2.868,3.993c1.345,1.482,2.977,2.631,4.857,3.412c1.834,0.756,3.725,1.14,5.618,1.14
			c1.84,0,3.65-0.303,5.381-0.901c1.762-0.611,3.336-1.515,4.677-2.684c1.368-1.194,2.467-2.682,3.269-4.421
			c0.802-1.745,1.209-3.708,1.209-5.838c0-2.774-0.503-5.157-1.497-7.085C96.908,84.122,95.499,82.502,93.713,81.235z"/>
		<path fill="#A5D3EB" d="M133.291,63.834c-0.885,0.996-1.352,2.226-1.352,3.557v18.167c0,1.296-0.215,2.519-0.64,3.629
			c-0.422,1.109-1,2.071-1.72,2.859c-0.728,0.798-1.548,1.412-2.515,1.877c-1.819,0.878-4.013,0.884-5.798,0.005
			c-0.945-0.463-1.76-1.077-2.494-1.885c-0.718-0.789-1.296-1.748-1.717-2.857c-0.424-1.111-0.64-2.333-0.64-3.629V67.392
			c0-1.332-0.467-2.561-1.354-3.56c-1.923-2.168-5.202-2.17-7.13,0.002c-0.885,0.996-1.352,2.226-1.352,3.557v18.167
			c0,2.67,0.439,5.202,1.305,7.522c0.87,2.333,2.108,4.414,3.679,6.179c1.58,1.78,3.46,3.215,5.591,4.268
			c2.188,1.082,4.539,1.63,6.987,1.63c2.448,0,4.799-0.548,6.987-1.63c2.131-1.053,4.012-2.488,5.589-4.266
			c1.569-1.765,2.818-3.853,3.711-6.208c0.892-2.354,1.343-4.875,1.343-7.495V67.392c0-1.332-0.467-2.561-1.352-3.557
			C138.502,61.667,135.211,61.667,133.291,63.834z"/>
		<path fill="#A5D3EB" d="M182.861,67.164c-1.9-2.138-4.148-3.845-6.688-5.074c-5.176-2.498-11.441-2.501-16.625,0.002
			c-2.536,1.229-4.785,2.934-6.683,5.072c-1.881,2.115-3.377,4.609-4.448,7.412c-1.071,2.804-1.614,5.836-1.614,9.015
			c0,3.182,0.543,6.216,1.614,9.012c1.069,2.804,2.566,5.3,4.448,7.415c1.9,2.141,4.149,3.845,6.684,5.072
			c2.587,1.251,5.385,1.885,8.314,1.885c2.928,0,5.724-0.634,8.313-1.885c1.327-0.641,2.572-1.412,3.728-2.303
			c0.157,0.248,0.335,0.485,0.536,0.711c1.925,2.173,5.208,2.17,7.128,0.002c0.887-0.997,1.355-2.225,1.355-3.558V83.591
			c0-3.172-0.543-6.206-1.616-9.015C186.238,71.775,184.742,69.282,182.861,67.164z M172.096,95.59
			c-2.669,1.284-5.791,1.287-8.472-0.002c-1.364-0.656-2.575-1.57-3.599-2.724c-1.04-1.169-1.874-2.568-2.479-4.163
			c-0.603-1.592-0.91-3.312-0.91-5.109c0-1.797,0.307-3.518,0.91-5.112c0.604-1.592,1.438-2.992,2.48-4.163
			c1.022-1.151,2.233-2.066,3.599-2.722c1.342-0.646,2.729-0.958,4.237-0.958c1.51,0,2.895,0.313,4.239,0.958
			c1.362,0.654,2.573,1.57,3.598,2.722c1.042,1.174,1.876,2.574,2.478,4.16c0.604,1.597,0.91,3.317,0.91,5.115l0.002,0.558
			c-0.076,1.603-0.387,3.154-0.909,4.579c-0.604,1.57-1.438,2.961-2.481,4.138C174.675,94.018,173.464,94.934,172.096,95.59z"/>
		<path fill="#A5D3EB" d="M203.915,48.694c-1.925-2.172-5.206-2.172-7.131,0c-0.885,0.997-1.353,2.226-1.353,3.556v47.693
			c0,1.33,0.468,2.559,1.353,3.555c0.963,1.086,2.194,1.66,3.565,1.66c1.37,0,2.603-0.573,3.566-1.66
			c0.885-0.996,1.352-2.226,1.352-3.555V52.25C205.267,50.92,204.8,49.69,203.915,48.694z"/>
	</g>
</g>
<g>
	<path fill="#1C5379" d="M322.043,52.65c-0.596,0.335-1.239-0.025-1.973-0.667c-1.332-1.126-2.528-0.756-3.172-0.473
		c-1.56,0.676-1.903,0.639-3.017,0.053c-1.079-0.571-2.601-0.994-2.898-0.751l6.355,15.543L322.043,52.65z"/>
	<path fill="#1C5379" d="M314.24,46.411c1.42,0,2.583-1.149,2.583-2.583c0-1.432-1.163-2.583-2.583-2.583
		c-1.425,0-2.586,1.151-2.586,2.583C311.654,45.262,312.815,46.411,314.24,46.411z"/>
	<path fill="#1C5379" d="M320.243,44.651c-0.786,0.738-0.833,1.97-0.105,2.756c0.733,0.789,1.965,0.832,2.749,0.096
		c0.791-0.731,0.833-1.958,0.095-2.756C322.248,43.968,321.027,43.933,320.243,44.651z"/>
	<path fill="#1C5379" d="M319.31,38.981c1.718,0,3.102-1.397,3.102-3.119c0-1.702-1.384-3.099-3.102-3.099
		c-1.72,0-3.107,1.397-3.107,3.099C316.202,37.584,317.59,38.981,319.31,38.981z"/>
	<path fill="#1C5379" d="M234.129,102.292c-0.818-1.312-1.296-2.734-1.457-4.241c-0.047-0.366-0.07-1.902-0.035-4.584V81.551
		c0-2.281,0.25-3.878,0.776-4.799c0.739-1.279,2.146-1.92,4.253-1.92c3.297,0,5.851,1.56,7.658,4.679
		c1.515,2.593,2.276,5.663,2.276,9.223c0,4.829-1.319,7.231-3.971,7.231c-0.391,0-0.784-0.167-1.199-0.508
		c-0.408-0.345-0.601-0.724-0.601-1.136c0-0.946,0.295-1.667,0.903-2.128c0.258-0.22,0.961-0.606,2.123-1.142
		c0-1.788-1.044-2.671-3.112-2.671c-1.827,0-3.359,0.729-4.551,2.2c-1.152,1.357-1.738,2.982-1.738,4.842
		c0,2.819,1.066,5.167,3.194,7.029c2.008,1.808,4.446,2.707,7.303,2.707c4.819,0,8.717-2.2,11.698-6.601
		c2.022-2.982,3.327-6.579,3.737-10.259c0.018-0.14,0.045-0.44,0.06-0.591c0.186-1.672,1.009-3.094,2.426-4.295
		c1.565-1.297,3.365-1.958,5.375-1.958c4.19,0,7.533,1.047,9.385,3.612c1.519,2.111,2.684,4.448,4.048,6.677
		c1.63,2.403,3.98,3.62,7.069,3.62c2.906,0,5.455-0.903,7.66-2.708c1.712-1.414,2.786-3.062,3.248-4.966
		c0.04-0.108,0.062-0.213,0.082-0.298l3.823-16.958l13.474,33.618l13.703-33.7c0.615,4.245,1.264,8.466,1.92,12.687
		c0.758,5.207,1.14,9.413,1.14,12.647c0,2.226-0.459,3.82-1.378,4.786c-0.442,0.311-0.878,0.631-1.291,0.947
		c-0.608,0.46-0.903,0.876-0.903,1.179c0,0.393,0.548,0.59,1.649,0.59c0.57,0,1.441-0.067,2.607-0.172
		c1.162-0.125,2.044-0.18,2.649-0.18c0.943,0,2.391,0.06,4.318,0.19c1.95,0.13,3.422,0.183,4.44,0.162h0.706l0.356-0.162l0.045-0.46
		c0-0.21-0.296-0.551-0.874-1.031c-0.701-0.581-1.089-0.907-1.129-0.974c-0.839-1.039-1.575-3.282-2.206-6.762
		c-1.102-5.883-2.655-16.537-4.671-31.928c-0.178-1.495-0.28-2.763-0.28-3.815c0-2.163,0.551-3.265,1.657-3.265
		c1.307,0,2.608,0.847,1.955,2.008c-1.095,1.973-2.211,2.229-2.398,2.994c-0.233,1.011,0.496,1.877,1.454,2.506
		c0.821,0.543,1.8,0.821,2.952,0.821c1.985,0,3.629-1.004,4.906-3.021c1.107-1.748,1.65-3.685,1.65-5.82
		c0-2.924-1.27-5.393-3.803-7.408c-2.378-1.89-5.095-2.829-8.137-2.829c-4.293,0-7.632,1.231-10.013,3.692
		c-1.75,1.794-3.46,5-5.107,9.575l-6.321,17.244c-1.657-4.078-3.299-8.171-4.948-12.254c0,0-4.749-11.28-6.171-15.098
		c-11.128-27.354-54.188-6.885-57.636-5.162c-9.683,4.884-20.372,4.266-26.974,4.864c-1.808,0.148-2.634-0.308-3.533-0.308
		c-0.42,0-1.128,0.105-1.128,0.358c1.958,1.417,3.194,2.511,3.689,3.302c0.648,1.042,0.972,2.654,0.972,4.824
		c0,0.393-0.36,12.97-1.094,37.753c-0.105,2.812-0.354,4.679-0.749,5.583c-0.519,1.134-1.833,2.464-3.92,3.95l0.228,0.351
		l1.222,0.04c1.074,0.025,2.601-0.05,4.594-0.22c2.087-0.21,3.61-0.311,4.556-0.311c0.731,0,1.833,0.07,3.305,0.236
		c1.457,0.175,2.553,0.255,3.289,0.255 M241.274,64.688c-1.224,1.619-2.849,2.408-4.841,2.408c-1.444,0-2.178-0.904-2.178-2.681
		c0-0.28,0.025-0.721,0.068-1.347c0.032-0.641,0.053-1.126,0.053-1.452c0-2.331,0.035-3.765,0.095-4.311
		c0.265-1.912,0.941-2.949,2.022-3.134c0.393-0.08,0.816-0.115,1.287-0.115c1.592,0,2.849,0.493,3.782,1.467
		c0.931,0.957,1.392,2.243,1.392,3.845C242.954,61.411,242.388,63.199,241.274,64.688z M262.235,59.614l-4.722,13.033
		c-2.105-1.973-5.024-2.898-8.774-2.834l-2.631,0.035c3.479-1.938,5.419-4.19,6.563-7.28c1.657-4.416,1.012-4.416,3.485-9.638
		c2.704-5.713,6.736-8.441,7.768-6.949C264.916,47.448,263.361,56.55,262.235,59.614z M275.576,73.167
		c-0.526,0.767-1.705,1.146-3.535,1.146c-1.52,0-2.489-0.053-2.909-0.165c-1.102-0.255-1.655-0.901-1.655-1.925
		c0-1.515,0.573-3.64,1.697-6.391c0.918-2.079,1.827-4.156,2.744-6.244c2.436,8.582,3.658,12.968,3.658,13.11V73.167z
		 M290.856,80.507c0,0-7.976-24.058-6.822-30.566c1.332-7.453,8.917-7.688,10.432-0.975
		C295.94,55.485,290.856,80.507,290.856,80.507z"/>
</g>
<path fill="#1C5379" d="M300.66,29.859c0,14.254-11.551,25.83-25.823,25.83c-14.259,0-25.827-11.575-25.827-25.83
	c0-14.259,11.568-25.837,25.827-25.837C289.108,4.021,300.66,15.6,300.66,29.859z"/>
<path fill="#FFFFFF" d="M295.935,29.859c0,11.648-9.45,21.093-21.098,21.093c-11.651,0-21.106-9.445-21.106-21.093
	c0-11.654,9.455-21.094,21.106-21.094C286.485,8.765,295.935,18.205,295.935,29.859z"/>
<path fill="#1C5379" d="M291.016,29.859c0,8.932-7.252,16.182-16.179,16.182c-8.935,0-16.174-7.25-16.174-16.182
	c0-8.932,7.24-16.169,16.174-16.169C283.764,13.689,291.016,20.927,291.016,29.859z"/>
<path fill="#FFFFFF" d="M283.471,20.656c1.264,1.98,2.008,4.326,2.008,6.839c0,6.962-5.646,12.632-12.622,12.632
	c-3.334,0-6.379-1.322-8.626-3.435c2.245,3.475,6.148,5.783,10.606,5.783c6.969,0,12.617-5.655,12.617-12.617
	C287.454,26.224,285.932,22.959,283.471,20.656z"/>
<g>
	<path fill="#FFFFFF" d="M274.837,17.234c-4.226,0-7.951,2.078-10.241,5.265l3.873,2.491c1.447-1.905,3.768-3.147,6.369-3.147
		V17.234z"/>
</g>
<path fill="#FFFFFF" d="M263.449,24.411c-0.733,1.542-1.174,3.23-1.221,5.022l4.599,0.05c0.04-0.886,0.218-1.748,0.543-2.539
	L263.449,24.411z"/>
<g>
	<path fill="#0078A3" d="M30.399,136.042c0,4.671-2.743,6.991-7.655,6.991c-3.134,0-6.66-1.205-6.961-4.852h3.436
		c0.422,1.958,1.989,2.29,3.737,2.29c2.772,0,4.008-1.417,4.008-3.978v-2.38h-0.061c-0.964,1.718-2.742,2.742-4.671,2.742
		c-4.942,0-6.992-3.737-6.992-8.197c0-4.189,2.622-7.806,7.052-7.806c1.959,0,3.737,0.814,4.611,2.562h0.061v-2.14h3.436V136.042z
		 M26.964,128.719c0-2.682-1.206-5.153-4.189-5.153c-3.044,0-4.099,2.833-4.099,5.424c0,2.562,1.236,5.153,4.099,5.153
		C25.818,134.144,26.964,131.371,26.964,128.719z"/>
	<path fill="#0078A3" d="M35.677,121.275h3.225v3.014h0.06c0.392-1.657,2.441-3.436,4.551-3.436c0.784,0,0.995,0.061,1.296,0.091
		v3.315c-0.482-0.061-0.995-0.151-1.477-0.151c-2.351,0-4.219,1.898-4.219,5.334v7.414h-3.436V121.275z"/>
	<path fill="#0078A3" d="M61.145,133.39c0,0.844,0.181,1.175,0.814,1.175c0.211,0,0.482,0,0.844-0.06v2.381
		c-0.512,0.181-1.597,0.392-2.17,0.392c-1.386,0-2.381-0.482-2.652-1.898c-1.356,1.326-3.556,1.898-5.395,1.898
		c-2.803,0-5.334-1.507-5.334-4.55c0-3.888,3.104-4.521,5.997-4.852c2.471-0.452,4.671-0.181,4.671-2.2
		c0-1.778-1.838-2.109-3.224-2.109c-1.929,0-3.285,0.784-3.436,2.471h-3.436c0.241-4.008,3.646-5.184,7.082-5.184
		c3.043,0,6.238,1.236,6.238,4.521V133.39z M57.709,129.051c-1.055,0.693-2.712,0.663-4.219,0.934
		c-1.477,0.241-2.803,0.784-2.803,2.592c0,1.537,1.959,1.989,3.164,1.989c1.507,0,3.857-0.783,3.857-2.953V129.051z"/>
	<path fill="#0078A3" d="M66.755,121.275h3.255v2.11h0.06c0.964-1.778,2.833-2.532,4.822-2.532c4.912,0,7.293,3.737,7.293,8.288
		c0,4.189-2.109,8.137-6.72,8.137c-1.989,0-4.128-0.723-5.213-2.441H70.19v7.775h-3.436V121.275z M74.44,123.566
		c-2.893,0-4.37,2.2-4.37,5.515c0,3.134,1.597,5.484,4.37,5.484c3.134,0,4.309-2.772,4.309-5.484
		C78.749,126.248,77.272,123.566,74.44,123.566z"/>
	<path fill="#0078A3" d="M86.891,115.339h3.436v7.986h0.061c0.844-1.417,2.622-2.471,4.671-2.471c3.375,0,5.515,1.808,5.515,5.304
		v10.698h-3.436v-9.794c-0.06-2.441-1.024-3.496-3.043-3.496c-2.291,0-3.767,1.808-3.767,4.099v9.191h-3.436V115.339z"/>
	<path fill="#0078A3" d="M106.092,115.339h3.436v3.254h-3.436V115.339z M106.092,121.275h3.436v15.581h-3.436V121.275z"/>
	<path fill="#0078A3" d="M125.592,126.489c-0.271-1.899-1.658-2.923-3.556-2.923c-1.778,0-4.279,0.934-4.279,5.666
		c0,2.592,1.145,5.334,4.129,5.334c1.989,0,3.375-1.326,3.707-3.556h3.436c-0.633,4.038-3.134,6.268-7.142,6.268
		c-4.882,0-7.564-3.466-7.564-8.046c0-4.701,2.562-8.378,7.685-8.378c3.617,0,6.69,1.808,7.022,5.636H125.592z"/>
	<path fill="#0078A3" d="M155.795,134.445c-1.597,1.958-3.526,2.833-6.027,2.833c-3.948,0-6.781-2.351-6.781-6.389
		c0-3.044,2.471-4.973,4.942-6.238c-1.115-1.417-2.17-2.833-2.17-4.701c0-3.104,2.351-5.123,5.274-5.123
		c2.772,0,5.364,1.718,5.364,5.153c0,2.532-1.808,4.34-3.888,5.455l3.345,4.038c0.241-0.663,0.512-1.507,0.663-2.893h3.014
		c-0.211,1.868-0.724,3.767-1.688,5.274l4.129,5.002h-4.219L155.795,134.445z M149.738,126.911
		c-1.266,0.783-3.315,1.477-3.315,4.038c0,2.32,1.477,3.616,3.466,3.616c2.501,0,3.405-1.537,4.068-2.411L149.738,126.911z
		 M148.834,119.769c0,1.417,1.175,2.501,1.959,3.586c1.296-0.874,2.532-1.778,2.532-3.496c0-1.417-0.874-2.471-2.2-2.471
		C149.859,117.388,148.834,118.322,148.834,119.769z"/>
	<path fill="#0078A3" d="M173.945,121.275h3.646l3.044,11.633h0.06l2.923-11.633h3.466l2.803,11.633h0.06l3.164-11.633h3.496
		l-4.882,15.581h-3.526l-2.893-11.572h-0.06l-2.863,11.572h-3.617L173.945,121.275z"/>
	<path fill="#0078A3" d="M203.304,129.955c0,2.441,1.326,4.611,4.189,4.611c1.989,0,3.194-0.874,3.797-2.591h3.254
		c-0.753,3.405-3.646,5.304-7.052,5.304c-4.882,0-7.625-3.405-7.625-8.197c0-4.43,2.893-8.228,7.534-8.228
		c4.912,0,7.926,4.43,7.353,9.101H203.304z M211.32,127.694c-0.121-2.169-1.597-4.128-3.917-4.128c-2.381,0-4.008,1.808-4.099,4.128
		H211.32z"/>
	<path fill="#0078A3" d="M219.28,115.339h3.436v7.956h0.061c0.934-1.507,2.893-2.441,4.641-2.441c4.912,0,7.293,3.737,7.293,8.288
		c0,4.189-2.109,8.137-6.72,8.137c-2.109,0-4.37-0.512-5.395-2.562h-0.06v2.14h-3.255V115.339z M226.965,123.566
		c-2.893,0-4.37,2.2-4.37,5.515c0,3.134,1.597,5.484,4.37,5.484c3.134,0,4.309-2.772,4.309-5.484
		C231.274,126.248,229.798,123.566,226.965,123.566z"/>
	<path fill="#0078A3" d="M264.281,136.856h-3.254v-2.109h-0.061c-0.904,1.778-2.863,2.531-4.822,2.531
		c-4.912,0-7.293-3.646-7.293-8.317c0-5.636,3.345-8.107,6.75-8.107c1.959,0,4.129,0.724,5.184,2.441h0.06v-7.956h3.436V136.856z
		 M256.596,134.565c3.074,0,4.37-2.802,4.37-5.515c0-3.436-1.657-5.485-4.31-5.485c-3.225,0-4.37,2.863-4.37,5.666
		C252.287,131.914,253.613,134.565,256.596,134.565z"/>
	<path fill="#0078A3" d="M272.513,129.955c0,2.441,1.326,4.611,4.189,4.611c1.989,0,3.194-0.874,3.797-2.591h3.254
		c-0.753,3.405-3.646,5.304-7.052,5.304c-4.882,0-7.625-3.405-7.625-8.197c0-4.43,2.893-8.228,7.534-8.228
		c4.912,0,7.926,4.43,7.353,9.101H272.513z M280.529,127.694c-0.121-2.169-1.597-4.128-3.917-4.128
		c-2.381,0-4.008,1.808-4.099,4.128H280.529z"/>
	<path fill="#0078A3" d="M290.991,131.854c0.181,1.989,1.688,2.712,3.526,2.712c1.296,0,3.556-0.271,3.466-2.049
		c-0.09-1.809-2.592-2.02-5.093-2.592c-2.531-0.542-5.002-1.447-5.002-4.611c0-3.406,3.677-4.46,6.509-4.46
		c3.194,0,6.087,1.326,6.509,4.792h-3.586c-0.301-1.627-1.658-2.08-3.165-2.08c-0.994,0-2.833,0.241-2.833,1.597
		c0,1.688,2.531,1.929,5.063,2.501c2.501,0.572,5.033,1.477,5.033,4.55c0,3.707-3.737,5.063-6.961,5.063
		c-3.918,0-6.841-1.748-6.901-5.424H290.991z"/>
	<path fill="#0078A3" d="M305.942,115.339h3.436v3.254h-3.436V115.339z M305.942,121.275h3.436v15.581h-3.436V121.275z"/>
	<path fill="#0078A3" d="M329.33,136.042c0,4.671-2.742,6.991-7.654,6.991c-3.134,0-6.66-1.205-6.961-4.852h3.436
		c0.422,1.958,1.988,2.29,3.736,2.29c2.772,0,4.008-1.417,4.008-3.978v-2.38h-0.06c-0.965,1.718-2.743,2.742-4.672,2.742
		c-4.941,0-6.991-3.737-6.991-8.197c0-4.189,2.622-7.806,7.052-7.806c1.959,0,3.737,0.814,4.611,2.562h0.06v-2.14h3.436V136.042z
		 M325.895,128.719c0-2.682-1.205-5.153-4.188-5.153c-3.044,0-4.099,2.833-4.099,5.424c0,2.562,1.235,5.153,4.099,5.153
		C324.75,134.144,325.895,131.371,325.895,128.719z"/>
	<path fill="#0078A3" d="M334.609,121.275h3.254v2.291l0.061,0.06c1.024-1.718,2.803-2.772,4.852-2.772
		c3.376,0,5.516,1.808,5.516,5.304v10.698h-3.436v-9.794c-0.061-2.441-1.024-3.496-3.044-3.496c-2.29,0-3.767,1.808-3.767,4.099
		v9.191h-3.436V121.275z"/>
</g>
</svg>
