<?xml version="1.0" encoding="utf-8"?>
<!-- Generator: Adobe Illustrator 16.0.3, SVG Export Plug-In . SVG Version: 6.00 Build 0)  -->
<!DOCTYPE svg PUBLIC "-//W3C//DTD SVG 1.1//EN" "http://www.w3.org/Graphics/SVG/1.1/DTD/svg11.dtd">
<svg version="1.1" id="Layer_1" xmlns="http://www.w3.org/2000/svg" xmlns:xlink="http://www.w3.org/1999/xlink" x="0px" y="0px"
	 width="6727.5px" height="1872.5px" viewBox="0 0 6727.5 1872.5" enable-background="new 0 0 6727.5 1872.5" xml:space="preserve">
<path fill="#1D547A" d="M565.487,1774.837c-289.34,0-524.744-235.384-524.744-524.76c0-289.336,235.404-524.759,524.744-524.759
	c289.362,0,524.76,235.423,524.76,524.759C1090.247,1539.453,854.858,1774.837,565.487,1774.837z M565.487,853.873
	c-218.477,0-396.226,177.731-396.226,396.205c0,218.475,177.744,396.241,396.226,396.241c218.492,0,396.228-177.767,396.228-396.241
	C961.715,1031.604,783.979,853.873,565.487,853.873z"/>
<path fill="#1D547A" d="M567.479,813.766h-98.586c0-132.646,61.716-236.098,165.045-276.671
	c80.461-31.604,169.729-15.672,223.931,39.404c53.98,39.88,100.509,58.301,134.685,53.386c32.581-4.716,52.369-31.219,66.833-50.549
	c2.757-3.74,5.29-7.052,7.529-9.89l76.97,61.615c-1.652,2.044-3.459,4.481-5.498,7.221c-19.027,25.517-58.687,78.625-131.791,89.159
	c-62.257,8.97-133.211-16.068-211.018-74.445l-3.541-2.659l-2.981-3.221c-26.058-28.041-75.011-35.571-119.056-18.284
	C639.17,640.928,567.479,683.199,567.479,813.766z"/>
<g>
	<rect x="1177.67" y="383.788" fill="#1D547A" width="61.006" height="228.759"/>
	<rect x="1093.786" y="467.68" fill="#1D547A" width="228.757" height="60.992"/>
</g>
<g>
	<path fill="#1D547A" d="M498.899,1374.005c0,52.622-42.624,95.268-95.223,95.268c-52.605,0-95.224-42.646-95.224-95.268
		c0-52.578,42.619-95.185,95.224-95.185C456.275,1278.82,498.899,1321.427,498.899,1374.005z"/>
	<path fill="#1D547A" d="M800.557,1374.005c0,52.622-42.622,95.268-95.224,95.268c-52.604,0-95.224-42.646-95.224-95.268
		c0-52.578,42.619-95.185,95.224-95.185C757.935,1278.82,800.557,1321.427,800.557,1374.005z"/>
</g>
<g>
	<path fill="#A7D6EE" d="M1318.621,1106.613c-7.278-18.773-9.385-30.221-9.385-43.814c0-47.94,37.546-72.98,78.193-72.98
		c41.708,0,59.427,30.268,66.706,53.2l95.938,296.087h2.089l95.939-296.087c7.279-22.933,24.998-53.2,66.682-53.2
		c40.678,0,78.225,25.04,78.225,72.98c0,13.606-2.066,25.041-9.388,43.814l-151.185,387.896
		c-14.603,38.538-30.22,62.496-81.313,62.496c-51.096,0-66.729-23.945-81.363-62.496L1318.621,1106.613z"/>
	<path fill="#A7D6EE" d="M2054.677,847.02c0,46.878-37.545,86.533-84.461,86.533c-44.819,0-84.443-40.695-84.443-86.533
		c0-42.761,39.636-82.366,84.443-82.366C2015.043,764.653,2054.677,803.193,2054.677,847.02z M1895.16,1073.228
		c0-50.035,31.24-83.409,75.056-83.409c43.772,0,75.094,33.374,75.094,83.409v400.393c0,50.041-31.321,83.371-75.094,83.371
		c-43.815,0-75.056-33.33-75.056-83.371V1073.228z"/>
	<path fill="#A7D6EE" d="M2507.117,1158.718c-28.143,0-85.479-43.724-134.466-43.724c-27.124,0-51.093,12.494-51.093,41.659
		c0,69.867,260.682,59.427,260.682,230.427c0,100.088-84.479,176.182-213.75,176.182c-84.443,0-209.602-47.939-209.602-115.748
		c0-22.886,22.935-66.701,64.678-66.701c58.373,0,84.457,51.094,155.346,51.094c45.875,0,59.434-14.604,59.434-42.766
		c0-68.809-260.684-58.367-260.684-230.423c0-104.253,84.504-175.126,203.336-175.126c74.026,0,187.672,34.381,187.672,108.421
		C2568.652,1126.399,2542.6,1158.718,2507.117,1158.718z"/>
	<path fill="#A7D6EE" d="M2697.898,1073.228c0-50.035,31.29-83.409,75.031-83.409c43.816,0,75.095,33.374,75.095,83.409v267.987
		c0,62.588,46.933,96.924,96.974,96.924c50.064,0,96.974-34.336,96.974-96.924v-267.987c0-50.035,31.278-83.415,75.033-83.415
		c43.813,0,75.081,33.38,75.081,83.415v271.093c0,133.461-88.604,218.941-247.1,218.941s-247.102-85.48-247.102-218.941v-271.093
		H2697.898z"/>
	<path fill="#A7D6EE" d="M3853.084,1459.02c0,38.559,0,97.985-71.949,97.985c-43.773,0-61.516-23.945-71.957-63.545
		c-38.576,45.868-85.475,69.826-142.793,69.826c-140.788,0-248.178-119.908-248.178-288.809
		c0-164.685,110.521-290.874,248.178-290.874c55.205,0,109.444,21.894,142.793,68.814c4.16-36.492,35.463-62.595,71.957-62.595
		c71.949,0,71.949,59.429,71.949,98.027V1459.02z M3587.223,1425.634c78.176,0,115.723-79.206,115.723-151.181
		s-36.492-153.244-115.723-153.244c-82.371,0-118.889,81.27-118.889,153.244S3505.904,1425.634,3587.223,1425.634z"/>
	<path fill="#A7D6EE" d="M3999.009,831.353c0-50.041,31.278-83.415,75.057-83.415c43.797,0,75.069,33.374,75.069,83.415v642.268
		c0,50.041-31.272,83.371-75.069,83.371c-43.778,0-75.057-33.33-75.057-83.371V831.353z"/>
	<path fill="#1D547A" d="M4295.046,831.353c0-50.041,31.292-83.415,75.082-83.415c43.796,0,75.095,33.374,75.095,83.415v204.339
		c39.598-34.38,90.705-52.1,142.828-52.1c161.627,0,241.897,151.181,241.897,297.143c0,141.798-95.919,282.539-247.124,282.539
		c-51.07,0-109.484-22.935-137.602-68.765c-9.412,39.605-33.375,62.496-75.095,62.496c-43.779,0-75.082-33.331-75.082-83.372
		V831.353z M4563.021,1425.634c78.2,0,116.752-81.313,116.752-151.181c0-70.879-38.541-153.244-116.752-153.244
		c-80.283,0-117.799,75.092-117.799,148.019C4445.223,1342.219,4480.649,1425.634,4563.021,1425.634z"/>
	<path fill="#1D547A" d="M5469.014,1459.02c0,38.559,0,97.985-71.957,97.985c-43.783,0-61.479-23.945-71.895-63.545
		c-38.564,45.868-85.523,69.826-142.849,69.826c-140.733,0-248.123-119.908-248.123-288.809
		c0-164.685,110.483-290.874,248.123-290.874c55.268,0,109.497,21.894,142.849,68.814c4.158-36.492,35.438-62.595,71.895-62.595
		c71.957,0,71.957,59.429,71.957,98.027V1459.02z M5203.158,1425.634c78.2,0,115.725-79.206,115.725-151.181
		s-36.471-153.244-115.725-153.244c-82.372,0-118.883,81.27-118.883,153.244S5121.851,1425.634,5203.158,1425.634z"/>
	<path fill="#1D547A" d="M5617.01,1073.228c0-50.035,31.288-83.409,75.092-83.409c38.564,0,63.588,20.881,68.789,56.313
		c36.518-39.605,84.469-62.54,139.735-62.54c62.534,0,115.724,26.055,155.321,76.099c41.721-47.984,107.391-76.099,158.484-76.099
		c121.967,0,205.381,70.873,205.381,202.233v287.795c0,50.041-31.267,83.371-75.057,83.371c-43.791,0-75.051-33.33-75.051-83.371
		v-261.7c0-60.48-33.369-103.193-87.582-103.193c-55.289,0-88.641,42.713-88.641,103.193v261.7
		c0,50.041-31.277,83.371-75.063,83.371c-43.789,0-75.044-33.33-75.044-83.371v-261.7c0-60.48-33.374-103.193-87.587-103.193
		c-61.534,0-88.663,42.713-88.663,103.193v261.7c0,50.041-31.249,83.371-75.035,83.371c-43.792,0-75.094-33.33-75.094-83.371
		v-400.393H5617.01z"/>
</g>
</svg>
